<svg width="24" height="24" viewBox="0 0 24 24" fill="none" xmlns="http://www.w3.org/2000/svg">
<rect x="2" y="2" width="20" height="20" rx="6" fill="#141518"/>
<path fill-rule="evenodd" clip-rule="evenodd" d="M8.48996 8.71477C8.48996 9.10953 8.80017 9.42954 9.18284 9.42954H13.3894L8.20294 14.7798C7.93235 15.0589 7.93235 15.5115 8.20294 15.7906C8.47353 16.0698 8.91224 16.0698 9.18283 15.7906L14.4383 10.3691L14.6149 14.5581C14.6315 14.9525 14.9549 15.2583 15.3372 15.2412C15.7195 15.224 16.016 14.8904 15.9993 14.4961V8.68372C15.9832 8.3014 15.6781 8 15.3071 8H9.18284C8.80017 8 8.48996 8.32001 8.48996 8.71477Z" fill="white"/>
</svg>
