<svg width="24" height="24" viewBox="0 0 24 24" fill="none" xmlns="http://www.w3.org/2000/svg">
<path fill-rule="evenodd" clip-rule="evenodd" d="M8.81669 8.66667L12 4.84672L15.1833 8.66667H8.81669ZM5.924 8.66667L11.1464 2.3998C11.5906 1.86673 12.4093 1.86673 12.8536 2.3998L18.0759 8.66667H20.3333C20.947 8.66667 21.4444 9.16413 21.4444 9.77778V18.6667C21.4444 20.5076 19.9521 22 18.1111 22H5.88802C4.04707 22 2.55469 20.5076 2.55469 18.6667V9.77778C2.55469 9.16413 3.05215 8.66667 3.6658 8.66667H5.924ZM12 17.5556C13.2273 17.5556 14.2222 16.5606 14.2222 15.3333C14.2222 14.106 13.2273 13.1111 12 13.1111C10.7727 13.1111 9.77776 14.106 9.77776 15.3333C9.77776 16.5606 10.7727 17.5556 12 17.5556Z" fill="white"/>
</svg>
