<svg width="24" height="24" viewBox="0 0 24 24" fill="none" xmlns="http://www.w3.org/2000/svg">
<path fill-rule="evenodd" clip-rule="evenodd" d="M2 12C2 17.5228 6.47715 22 12 22C17.5228 22 22 17.5228 22 12C22 6.47715 17.5228 2 12 2C6.47715 2 2 6.47715 2 12ZM11.9074 5.88889C11.6461 5.88889 11.4289 6.09004 11.4089 6.35054L10.9205 12.6991C10.9021 12.9382 11.0561 13.1567 11.2875 13.2198L16.3684 14.6055C16.6865 14.6923 16.9999 14.4528 16.9999 14.1232V13.9568C16.9999 13.7774 16.9038 13.6117 16.748 13.5227L13.1111 11.4444L12.6005 6.33914C12.575 6.08354 12.3599 5.88889 12.103 5.88889H11.9074Z" fill="#141518"/>
</svg>
