<svg width="24" height="24" viewBox="0 0 24 24" fill="none" xmlns="http://www.w3.org/2000/svg">
<path fill-rule="evenodd" clip-rule="evenodd" d="M3 5C3 3.34315 4.34315 2 6 2H18C19.6569 2 21 3.34315 21 5V19C21 20.6569 19.6569 22 18 22H6C4.34315 22 3 20.6569 3 19V5ZM12 11C10.8954 11 10 10.1046 10 9C10 7.89543 10.8954 7 12 7C13.1046 7 14 7.89543 14 9C14 10.1046 13.1046 11 12 11ZM11.9907 12C9.36773 12 7.2157 13.5166 7.00036 16.4995C6.98863 16.662 7.26484 17 7.40417 17H16.5815C16.9988 17 17.0053 16.6222 16.9988 16.5C16.836 13.4332 14.6507 12 11.9907 12Z" fill="white"/>
</svg>
