<svg width="22" height="22" viewBox="0 0 22 22" fill="none" xmlns="http://www.w3.org/2000/svg">
<path d="M21.9982 11.2445C21.9982 10.34 21.9233 9.68004 21.7612 8.99561H11.2227V13.0778H17.4086C17.2839 14.0923 16.6104 15.62 15.1138 16.6466L15.0928 16.7833L18.4249 19.313L18.6558 19.3356C20.7759 17.4167 21.9982 14.5933 21.9982 11.2445Z" fill="#4285F4"/>
<path d="M11.2226 22C14.2532 22 16.7973 21.0221 18.6557 19.3355L15.1137 16.6466C14.1659 17.2944 12.8937 17.7466 11.2226 17.7466C8.25433 17.7466 5.73507 15.8278 4.83703 13.1755L4.70539 13.1865L1.24062 15.8143L1.19531 15.9377C3.0411 19.531 6.8325 22 11.2226 22Z" fill="#34A853"/>
<path d="M4.83897 13.1757C4.60201 12.4912 4.46487 11.7579 4.46487 11.0001C4.46487 10.2423 4.60201 9.50899 4.8265 8.82455L4.82022 8.67878L1.31203 6.00879L1.19725 6.06229C0.436514 7.55342 0 9.2279 0 11.0001C0 12.7723 0.436514 14.4467 1.19725 15.9379L4.83897 13.1757Z" fill="#FBBC05"/>
<path d="M11.2226 4.2533C13.3303 4.2533 14.752 5.14552 15.5627 5.89113L18.7305 2.86C16.785 1.08778 14.2532 0 11.2226 0C6.8325 0 3.0411 2.46887 1.19531 6.06217L4.82456 8.82443C5.73507 6.17221 8.25433 4.2533 11.2226 4.2533Z" fill="#EB4335"/>
</svg>
