<svg width="24" height="24" viewBox="0 0 24 24" fill="none" xmlns="http://www.w3.org/2000/svg">
<path d="M12 24C5.3736 24 0 18.6264 0 12C0 5.3736 5.3736 0 12 0C18.6264 0 24 5.3736 24 12C24 18.6264 18.6264 24 12 24Z" fill="url(#paint0_linear)"/>
<path d="M12 5.44156C14.1354 5.44156 14.3885 5.44859 15.2323 5.48844C16.0129 5.5236 16.4372 5.65486 16.7184 5.76503C17.0911 5.91036 17.3584 6.08381 17.6373 6.36275C17.9162 6.64169 18.0897 6.9089 18.235 7.2816C18.3452 7.56288 18.4741 7.98714 18.5116 8.76769C18.5491 9.61153 18.5585 9.86468 18.5585 12.0001C18.5585 14.1354 18.5514 14.3886 18.5116 15.2324C18.4764 16.013 18.3452 16.4373 18.235 16.7185C18.0897 17.0912 17.9162 17.3584 17.6373 17.6374C17.3584 17.9163 17.0911 18.0898 16.7184 18.2351C16.4372 18.3453 16.0129 18.4742 15.2323 18.5117C14.3885 18.5492 14.1354 18.5586 12 18.5586C9.86459 18.5586 9.61144 18.5515 8.7676 18.5117C7.98705 18.4765 7.56278 18.3453 7.2815 18.2351C6.90881 18.0898 6.64159 17.9163 6.36265 17.6374C6.08372 17.3584 5.91026 17.0912 5.76493 16.7185C5.65477 16.4373 5.52585 16.013 5.48834 15.2324C5.45084 14.3886 5.44146 14.1354 5.44146 12.0001C5.44146 9.86468 5.44849 9.61153 5.48834 8.76769C5.5235 7.98714 5.65477 7.56288 5.76493 7.2816C5.91026 6.9089 6.08372 6.64169 6.36265 6.36275C6.64159 6.08381 6.90881 5.91036 7.2815 5.76503C7.56278 5.65486 7.98705 5.52594 8.7676 5.48844C9.61144 5.44859 9.86459 5.44156 12 5.44156ZM12 4C9.82708 4 9.55518 4.00938 8.70196 4.04922C7.85109 4.08907 7.26978 4.22268 6.75879 4.42192C6.23373 4.6235 5.78603 4.89775 5.34301 5.34311C4.89765 5.78847 4.62575 6.23383 4.41948 6.76123C4.22258 7.26988 4.08663 7.85119 4.04678 8.7044C4.00693 9.55762 3.99756 9.82952 3.99756 12.0024C3.99756 14.1753 4.00693 14.4472 4.04678 15.3004C4.08663 16.1513 4.22024 16.7326 4.41948 17.2436C4.62341 17.7663 4.89765 18.214 5.34301 18.657C5.78837 19.1024 6.23373 19.3743 6.76113 19.5806C7.26978 19.7775 7.85109 19.9134 8.70431 19.9533C9.55752 19.9931 9.82943 20.0025 12.0023 20.0025C14.1752 20.0025 14.4471 19.9931 15.3003 19.9533C16.1512 19.9134 16.7325 19.7798 17.2435 19.5806C17.7662 19.3766 18.2139 19.1024 18.6569 18.657C19.1023 18.2117 19.3742 17.7663 19.5805 17.2389C19.7774 16.7303 19.9133 16.1489 19.9532 15.2957C19.993 14.4425 20.0024 14.1706 20.0024 11.9977C20.0024 9.82484 19.993 9.55293 19.9532 8.69972C19.9133 7.84885 19.7797 7.26753 19.5805 6.75654C19.3765 6.23383 19.1023 5.78613 18.6569 5.34311C18.2116 4.89775 17.7662 4.62585 17.2388 4.41958C16.7302 4.22268 16.1488 4.08673 15.2956 4.04688C14.4448 4.00938 14.1729 4 12 4Z" fill="white"/>
<path d="M12.0001 7.89099C9.73115 7.89099 7.89111 9.73103 7.89111 12C7.89111 14.269 9.73115 16.109 12.0001 16.109C14.2691 16.109 16.1092 14.269 16.1092 12C16.1092 9.73103 14.2691 7.89099 12.0001 7.89099ZM12.0001 14.6675C10.5281 14.6675 9.33267 13.4744 9.33267 12C9.33267 10.5256 10.5281 9.33255 12.0001 9.33255C13.4722 9.33255 14.6676 10.5256 14.6676 12C14.6676 13.4744 13.4722 14.6675 12.0001 14.6675Z" fill="white"/>
<path d="M16.2706 8.69027C16.8014 8.69027 17.2317 8.26 17.2317 7.72923C17.2317 7.19846 16.8014 6.76819 16.2706 6.76819C15.7398 6.76819 15.3096 7.19846 15.3096 7.72923C15.3096 8.26 15.7398 8.69027 16.2706 8.69027Z" fill="white"/>
<defs>
<linearGradient id="paint0_linear" x1="3.51472" y1="20.4853" x2="20.4853" y2="3.51472" gradientUnits="userSpaceOnUse">
<stop stop-color="#FFD521"/>
<stop offset="0.0551048" stop-color="#FFD020"/>
<stop offset="0.1241" stop-color="#FEC01E"/>
<stop offset="0.2004" stop-color="#FCA71B"/>
<stop offset="0.2821" stop-color="#FA8316"/>
<stop offset="0.3681" stop-color="#F85510"/>
<stop offset="0.4563" stop-color="#F51E09"/>
<stop offset="0.5" stop-color="#F30005"/>
<stop offset="0.5035" stop-color="#F20007"/>
<stop offset="0.5966" stop-color="#E1003B"/>
<stop offset="0.6879" stop-color="#D30067"/>
<stop offset="0.7757" stop-color="#C70088"/>
<stop offset="0.8589" stop-color="#BF00A0"/>
<stop offset="0.9357" stop-color="#BB00AF"/>
<stop offset="1" stop-color="#B900B4"/>
</linearGradient>
</defs>
</svg>
