<svg width="24" height="24" viewBox="0 0 24 24" fill="none" xmlns="http://www.w3.org/2000/svg">
<path d="M11.0854 16.0355L9.6712 14.6213L12.1461 12.1464C12.7319 11.5606 12.7319 10.6109 12.1461 10.0251C11.5603 9.43933 10.6105 9.43933 10.0247 10.0251L6.48921 13.5606C5.12238 14.9275 5.12238 17.1436 6.48921 18.5104C7.85605 19.8772 10.0721 19.8772 11.439 18.5104L18.51 11.4393C19.8769 10.0725 19.8769 7.85642 18.51 6.48958L18.1565 6.13603C16.9849 4.96445 15.0854 4.96445 13.9138 6.13603L12.4996 4.72181C14.4522 2.76919 17.6181 2.76919 19.5707 4.72181L19.9242 5.07537C22.0721 7.22325 22.0721 10.7057 19.9242 12.8535L12.8532 19.9246C10.7053 22.0725 7.22288 22.0725 5.075 19.9246C2.92712 17.7767 2.92712 14.2943 5.075 12.1464L8.61054 8.6109C9.97737 7.24407 12.1934 7.24407 13.5603 8.6109C14.9271 9.97774 14.9271 12.1938 13.5603 13.5606L11.0854 16.0355Z" fill="#E8B65A"/>
</svg>
