<svg width="24" height="24" viewBox="0 0 24 24" fill="none" xmlns="http://www.w3.org/2000/svg">
<path d="M7 4.89474V21H5V3H11V4.89474H7Z" fill="#141518"/>
<path fill-rule="evenodd" clip-rule="evenodd" d="M10 2.33401C9.44772 2.33401 9 2.78173 9 3.33401V20.6663C9 21.2186 9.44772 21.6663 10 21.6663H18C18.5523 21.6663 19 21.2186 19 20.6663V3.33401C19 2.78173 18.5523 2.33401 18 2.33401H10ZM13.1667 11.547C13.1667 12.2976 12.607 12.906 11.9167 12.906C11.2263 12.906 10.6667 12.2976 10.6667 11.547C10.6667 10.7964 11.2263 10.188 11.9167 10.188C12.607 10.188 13.1667 10.7964 13.1667 11.547Z" fill="#141518"/>
</svg>
