<svg width="24" height="24" viewBox="0 0 24 24" fill="none" xmlns="http://www.w3.org/2000/svg">
<path fill-rule="evenodd" clip-rule="evenodd" d="M21.525 6.82127C21.525 6.40303 21.2787 6.02402 20.8965 5.85416L17.4618 4.32763L9.46005 8.77304V13.442L7.3434 12.3836V7.5276L15.0404 3.25147L12.4299 2.09122C12.1562 1.96959 11.8439 1.96959 11.5702 2.09122L3.1036 5.85416C2.72141 6.02402 2.4751 6.40303 2.4751 6.82127V16.094C2.4751 16.4784 2.68347 16.8325 3.01946 17.0192L11.4861 21.7229C11.8057 21.9004 12.1944 21.9004 12.514 21.7229L20.9806 17.0192C21.3166 16.8325 21.525 16.4784 21.525 16.094V6.82127Z" fill="white"/>
</svg>
