<svg width="24" height="24" viewBox="0 0 24 24" fill="none" xmlns="http://www.w3.org/2000/svg">
<path d="M7.75633 22H5.16966C4.61633 22 4.26466 21.5592 4.38966 21.0167L4.51383 20.455H6.23966C6.79466 20.455 7.353 20.0108 7.47466 19.47L8.36133 15.6433C8.48633 15.1033 9.04133 14.66 9.59466 14.66H10.3305C13.488 14.66 15.9422 14.0108 17.6972 12.71C19.4522 11.4092 20.3305 9.71 20.3305 7.5975C20.3305 6.66 20.168 5.885 19.8405 5.27333C19.8405 5.26 19.8272 5.2475 19.8272 5.235L19.9397 5.2975C20.5647 5.685 21.0397 6.18417 21.3655 6.80917C21.7022 7.43417 21.8638 8.20917 21.8638 9.135C21.8638 11.2475 20.9897 12.9467 19.2272 14.2475C17.4772 15.535 15.0147 16.1842 11.8655 16.1842H11.1155C10.5655 16.1842 10.0038 16.6217 9.87883 17.1725L8.99133 21.01C8.86716 21.5475 8.31633 21.985 7.76633 21.985L7.75633 22ZM5.5255 19.7542H2.938C2.3855 19.7542 2.03466 19.3133 2.158 18.7708L5.80216 2.985C5.928 2.44083 6.48133 2 7.03633 2H12.4238C13.5863 2 14.598 2.08167 15.4638 2.24083C16.3263 2.39833 17.0638 2.67333 17.7005 3.06583C18.3138 3.45333 18.8022 3.95917 19.1147 4.58083C19.4388 5.20417 19.6013 5.98083 19.6013 6.91167C19.6013 9.02417 18.7255 10.7233 16.9647 12.0108C15.2147 13.3117 12.7513 13.9492 9.60133 13.9492H8.8655C8.3155 13.9492 7.75883 14.3858 7.63383 14.9233L6.74966 18.7475C6.6255 19.2858 6.06883 19.7242 5.51216 19.7242L5.5255 19.7542ZM11.7305 5.28H10.8855C10.3305 5.28 9.7755 5.72083 9.65216 6.26167L8.87716 9.61167C8.75216 10.1517 9.10216 10.5942 9.65216 10.5942H10.2905C11.6772 10.5942 12.7655 10.3083 13.5405 9.74333C14.3147 9.17167 14.703 8.365 14.703 7.31667C14.703 6.625 14.4522 6.1125 13.953 5.78333C13.453 5.44667 12.703 5.27917 11.7147 5.27917L11.7305 5.28Z" fill="#E8B65A"/>
</svg>
