<svg width="123" height="122" viewBox="0 0 123 122" fill="none" xmlns="http://www.w3.org/2000/svg">
<rect x="1.5" y="1" width="120" height="120" rx="60" stroke="#FFF1ED" stroke-width="2" stroke-linecap="round" stroke-dasharray="8 8"/>
<path fill-rule="evenodd" clip-rule="evenodd" d="M49.8333 52.6667C47.9924 52.6667 46.5 54.1591 46.5 56V69.3334C46.5 71.1743 47.9924 72.6667 49.8333 72.6667H73.1667C75.0076 72.6667 76.5 71.1743 76.5 69.3334V56C76.5 54.1591 75.0076 52.6667 73.1667 52.6667H49.8333ZM54.8333 62.6667C54.8333 66.3486 57.8181 69.3334 61.5 69.3334C65.1819 69.3334 68.1667 66.3486 68.1667 62.6667C68.1667 58.9848 65.1819 56.0001 61.5 56.0001C57.8181 56.0001 54.8333 58.9848 54.8333 62.6667Z" fill="#E8B65A"/>
<rect x="56.5" y="47.6667" width="10" height="3.33333" rx="1.66667" fill="#E8B65A"/>
<path fill-rule="evenodd" clip-rule="evenodd" d="M61.5003 66C63.3413 66 64.8337 64.5076 64.8337 62.6666C64.8337 60.8257 63.3413 59.3333 61.5003 59.3333C59.6594 59.3333 58.167 60.8257 58.167 62.6666C58.167 64.5076 59.6594 66 61.5003 66Z" fill="#E8B65A"/>
</svg>
