<svg width="57" height="17" viewBox="0 0 57 17" fill="none" xmlns="http://www.w3.org/2000/svg">
<path d="M6.908 0.599999H9.24L15.268 16H13.596L12.1 12.172H6.666L5.808 10.72H11.594L8.074 1.766L2.442 16H0.792L6.908 0.599999ZM21.7913 4.406C22.2607 4.406 22.7007 4.44267 23.1113 4.516C23.5367 4.58933 23.83 4.66267 23.9913 4.736L23.7053 5.968C23.588 5.90933 23.346 5.85067 22.9793 5.792C22.6273 5.71867 22.158 5.682 21.5713 5.682C20.9553 5.682 20.4567 5.726 20.0753 5.814C19.7087 5.902 19.4667 5.97533 19.3493 6.034V16H17.9193V5.154C18.286 4.99267 18.792 4.83133 19.4373 4.67C20.0827 4.494 20.8673 4.406 21.7913 4.406ZM27.4899 4.626H32.0219V5.836H27.4899V11.886C27.4899 12.5313 27.5412 13.0593 27.6439 13.47C27.7612 13.866 27.9225 14.174 28.1279 14.394C28.3332 14.614 28.5825 14.7607 28.8759 14.834C29.1692 14.9073 29.4919 14.944 29.8439 14.944C30.4452 14.944 30.9292 14.878 31.2959 14.746C31.6625 14.5993 31.9485 14.4673 32.1539 14.35L32.5059 15.538C32.3005 15.67 31.9412 15.824 31.4279 16C30.9145 16.1613 30.3572 16.242 29.7559 16.242C29.0519 16.242 28.4579 16.154 27.9739 15.978C27.5045 15.7873 27.1232 15.5087 26.8299 15.142C26.5512 14.7607 26.3532 14.2913 26.2359 13.734C26.1185 13.1767 26.0599 12.5167 26.0599 11.754V1.282L27.4899 1.018V4.626ZM44.3577 10.324C44.3577 11.2187 44.2257 12.0327 43.9617 12.766C43.7123 13.4993 43.353 14.1227 42.8837 14.636C42.429 15.1493 41.8863 15.5527 41.2557 15.846C40.625 16.1247 39.9283 16.264 39.1657 16.264C38.403 16.264 37.7063 16.1247 37.0757 15.846C36.445 15.5527 35.895 15.1493 35.4257 14.636C34.971 14.1227 34.6117 13.4993 34.3477 12.766C34.0983 12.0327 33.9737 11.2187 33.9737 10.324C33.9737 9.42933 34.0983 8.61533 34.3477 7.882C34.6117 7.14867 34.971 6.52533 35.4257 6.012C35.895 5.484 36.445 5.08067 37.0757 4.802C37.7063 4.50867 38.403 4.362 39.1657 4.362C39.9283 4.362 40.625 4.50867 41.2557 4.802C41.8863 5.08067 42.429 5.484 42.8837 6.012C43.353 6.52533 43.7123 7.14867 43.9617 7.882C44.2257 8.61533 44.3577 9.42933 44.3577 10.324ZM42.8397 10.324C42.8397 8.90133 42.5097 7.772 41.8497 6.936C41.1897 6.08533 40.295 5.66 39.1657 5.66C38.0363 5.66 37.1417 6.08533 36.4817 6.936C35.8217 7.772 35.4917 8.90133 35.4917 10.324C35.4917 11.7467 35.8217 12.876 36.4817 13.712C37.1417 14.548 38.0363 14.966 39.1657 14.966C40.295 14.966 41.1897 14.548 41.8497 13.712C42.5097 12.876 42.8397 11.7467 42.8397 10.324ZM56.1944 15.604C55.769 15.7213 55.197 15.8533 54.4784 16C53.7597 16.1467 52.8797 16.22 51.8384 16.22C50.9877 16.22 50.2764 16.0953 49.7044 15.846C49.1324 15.5967 48.6704 15.2447 48.3184 14.79C47.9664 14.3353 47.7097 13.7853 47.5484 13.14C47.4017 12.4947 47.3284 11.7833 47.3284 11.006V4.626H48.7584V10.544C48.7584 11.3507 48.817 12.0327 48.9344 12.59C49.0517 13.1473 49.2424 13.602 49.5064 13.954C49.7704 14.2913 50.1077 14.5407 50.5184 14.702C50.9437 14.8487 51.457 14.922 52.0584 14.922C52.733 14.922 53.3197 14.8853 53.8184 14.812C54.317 14.7387 54.6324 14.6727 54.7644 14.614V4.626H56.1944V15.604Z" fill="#141518"/>
</svg>
