<svg width="60" height="43" viewBox="0 0 60 43" fill="none" xmlns="http://www.w3.org/2000/svg">
<path d="M7.408 14.6H9.74L15.768 30H14.096L12.6 26.172H7.166L6.308 24.72H12.094L8.574 15.766L2.942 30H1.292L7.408 14.6ZM22.2913 18.406C22.7607 18.406 23.2007 18.4427 23.6113 18.516C24.0367 18.5893 24.33 18.6627 24.4913 18.736L24.2053 19.968C24.088 19.9093 23.846 19.8507 23.4793 19.792C23.1273 19.7187 22.658 19.682 22.0713 19.682C21.4553 19.682 20.9567 19.726 20.5753 19.814C20.2087 19.902 19.9667 19.9753 19.8493 20.034V30H18.4193V19.154C18.786 18.9927 19.292 18.8313 19.9373 18.67C20.5827 18.494 21.3673 18.406 22.2913 18.406ZM27.9899 18.626H32.5219V19.836H27.9899V25.886C27.9899 26.5313 28.0412 27.0593 28.1439 27.47C28.2612 27.866 28.4225 28.174 28.6279 28.394C28.8332 28.614 29.0825 28.7607 29.3759 28.834C29.6692 28.9073 29.9919 28.944 30.3439 28.944C30.9452 28.944 31.4292 28.878 31.7959 28.746C32.1625 28.5993 32.4485 28.4673 32.6539 28.35L33.0059 29.538C32.8005 29.67 32.4412 29.824 31.9279 30C31.4145 30.1613 30.8572 30.242 30.2559 30.242C29.5519 30.242 28.9579 30.154 28.4739 29.978C28.0045 29.7873 27.6232 29.5087 27.3299 29.142C27.0512 28.7607 26.8532 28.2913 26.7359 27.734C26.6185 27.1767 26.5599 26.5167 26.5599 25.754V15.282L27.9899 15.018V18.626ZM44.8577 24.324C44.8577 25.2187 44.7257 26.0327 44.4617 26.766C44.2123 27.4993 43.853 28.1227 43.3837 28.636C42.929 29.1493 42.3863 29.5527 41.7557 29.846C41.125 30.1247 40.4283 30.264 39.6657 30.264C38.903 30.264 38.2063 30.1247 37.5757 29.846C36.945 29.5527 36.395 29.1493 35.9257 28.636C35.471 28.1227 35.1117 27.4993 34.8477 26.766C34.5983 26.0327 34.4737 25.2187 34.4737 24.324C34.4737 23.4293 34.5983 22.6153 34.8477 21.882C35.1117 21.1487 35.471 20.5253 35.9257 20.012C36.395 19.484 36.945 19.0807 37.5757 18.802C38.2063 18.5087 38.903 18.362 39.6657 18.362C40.4283 18.362 41.125 18.5087 41.7557 18.802C42.3863 19.0807 42.929 19.484 43.3837 20.012C43.853 20.5253 44.2123 21.1487 44.4617 21.882C44.7257 22.6153 44.8577 23.4293 44.8577 24.324ZM43.3397 24.324C43.3397 22.9013 43.0097 21.772 42.3497 20.936C41.6897 20.0853 40.795 19.66 39.6657 19.66C38.5363 19.66 37.6417 20.0853 36.9817 20.936C36.3217 21.772 35.9917 22.9013 35.9917 24.324C35.9917 25.7467 36.3217 26.876 36.9817 27.712C37.6417 28.548 38.5363 28.966 39.6657 28.966C40.795 28.966 41.6897 28.548 42.3497 27.712C43.0097 26.876 43.3397 25.7467 43.3397 24.324ZM56.6944 29.604C56.269 29.7213 55.697 29.8533 54.9784 30C54.2597 30.1467 53.3797 30.22 52.3384 30.22C51.4877 30.22 50.7764 30.0953 50.2044 29.846C49.6324 29.5967 49.1704 29.2447 48.8184 28.79C48.4664 28.3353 48.2097 27.7853 48.0484 27.14C47.9017 26.4947 47.8284 25.7833 47.8284 25.006V18.626H49.2584V24.544C49.2584 25.3507 49.317 26.0327 49.4344 26.59C49.5517 27.1473 49.7424 27.602 50.0064 27.954C50.2704 28.2913 50.6077 28.5407 51.0184 28.702C51.4437 28.8487 51.957 28.922 52.5584 28.922C53.233 28.922 53.8197 28.8853 54.3184 28.812C54.817 28.7387 55.1324 28.6727 55.2644 28.614V18.626H56.6944V29.604Z" fill="white"/>
</svg>
