<svg style="color: rgb(255, 255, 255) !important;font-size:50px" viewBox="0 0 18 23" fill="none" xmlns="http://www.w3.org/2000/svg" class="sc-csTbgd iYgqeP"><path d="M12.3306 4.01854C13.1089 3.06768 13.4993 2.04037 13.4993 0.940123V0.940109C13.4993 0.79418 13.4927 0.647083 13.4769 0.5C12.9348 0.528952 12.3583 0.698048 11.7489 1.00381C11.1382 1.31421 10.6346 1.70331 10.2386 2.17127C9.44545 3.09551 8.99881 4.2259 8.99881 5.28214C8.99881 5.42812 9.00791 5.56704 9.02361 5.69904C10.2555 5.80211 11.3915 5.14892 12.3306 4.01854ZM16.4738 19.7713C16.917 19.1208 17.2996 18.4133 17.6227 17.6447C17.756 17.3188 17.8813 16.9793 18 16.6248C17.4526 16.3885 16.9606 16.0558 16.52 15.6254C15.5479 14.6979 15.0532 13.5297 15.0387 12.126C15.0229 10.3238 15.8183 8.91896 17.4262 7.91595C16.5279 6.60142 15.1772 5.87178 13.3793 5.7224C12.7158 5.66441 11.9059 5.81162 10.9463 6.16714C9.93153 6.5505 9.33293 6.74279 9.15631 6.74279C8.92006 6.74279 8.38123 6.57834 7.54203 6.25405C6.70047 5.93085 6.02326 5.7664 5.50684 5.7664C4.56305 5.78256 3.68666 6.03514 2.87557 6.53081C2.06447 7.02647 1.41642 7.70166 0.929283 8.5576C0.309453 9.62321 0 10.8948 0 12.3692C0 13.6563 0.229518 14.9857 0.687366 16.3587C1.11488 17.6297 1.66057 18.7446 2.32433 19.7061C2.94297 20.6064 3.45939 21.242 3.87226 21.6127C4.51913 22.2319 5.16718 22.5266 5.81735 22.4981C6.24486 22.4832 6.80402 22.3324 7.49811 22.0432C8.19115 21.7553 8.83907 21.6127 9.44321 21.6127C10.0192 21.6127 10.6492 21.7553 11.3348 22.0432C12.018 22.3324 12.605 22.475 13.0917 22.475C13.7697 22.4587 14.4029 22.1722 14.9938 21.6127C15.3751 21.2719 15.8697 20.658 16.4738 19.7713Z" fill="currentColor"></path></svg>