<svg width="1440" height="128" viewBox="0 0 1440 128" fill="none" xmlns="http://www.w3.org/2000/svg">
<rect width="1440" height="128" fill="#141518"/>
<g opacity="0.48">
<path d="M221.829 41.4545V50.4318C221.829 51.7884 220.856 52.7614 219.499 52.7614C218.143 52.7614 217.17 51.7884 217.17 50.4318V41.4545H213.221V50.7727C213.221 54.0966 215.735 56.1705 219.499 56.1705C223.235 56.1705 225.778 54.0966 225.778 50.7727V41.4545H221.829Z" fill="#24262A"/>
<path d="M212.258 27H216.207V22.1989H217.57L220.127 27H224.417L221.462 21.5739C223.011 20.8281 223.934 19.4148 223.934 17.3977C223.934 14.3011 221.768 12.4545 218.536 12.4545H212.258V27ZM216.207 19.1307V15.608H217.599C218.984 15.608 219.815 16.1477 219.815 17.3977C219.815 18.6406 218.984 19.1307 217.599 19.1307H216.207Z" fill="#24262A"/>
<path d="M242.258 56H246.207V51.1989H247.57L250.127 56H254.417L251.462 50.5739C253.011 49.8281 253.934 48.4148 253.934 46.3977C253.934 43.3011 251.768 41.4545 248.536 41.4545H242.258V56ZM246.207 48.1307V44.608H247.599C248.984 44.608 249.815 45.1477 249.815 46.3977C249.815 47.6406 248.984 48.1307 247.599 48.1307H246.207Z" fill="#24262A"/>
<path d="M241.675 15.6364H246.05V27H249.942V15.6364H254.317V12.4545H241.675V15.6364Z" fill="#24262A"/>
<path d="M185.757 27L186.595 24.2159H191.396L192.234 27H196.496L191.694 12.4545H186.297L181.496 27H185.757ZM187.49 21.2614L188.939 16.4602H189.052L190.501 21.2614H187.49Z" fill="#24262A"/>
<path d="M195.069 48.7273C195.069 43.8693 191.944 41.2557 187.996 41.2557C184.018 41.2557 180.922 43.8693 180.922 48.7273C180.922 53.5568 184.018 56.1989 187.996 56.1989C191.944 56.1989 195.069 53.5852 195.069 48.7273ZM191.007 48.7273C191.007 51.3409 189.956 52.7614 187.996 52.7614C186.035 52.7614 184.984 51.3409 184.984 48.7273C184.984 46.1136 186.035 44.6932 187.996 44.6932C189.956 44.6932 191.007 46.1136 191.007 48.7273Z" fill="#24262A"/>
<path d="M131.829 41.4545V50.4318C131.829 51.7884 130.856 52.7614 129.499 52.7614C128.143 52.7614 127.17 51.7884 127.17 50.4318V41.4545H123.221V50.7727C123.221 54.0966 125.735 56.1705 129.499 56.1705C133.235 56.1705 135.778 54.0966 135.778 50.7727V41.4545H131.829Z" fill="#24262A"/>
<path d="M122.258 27H126.207V22.1989H127.57L130.127 27H134.417L131.462 21.5739C133.011 20.8281 133.934 19.4148 133.934 17.3977C133.934 14.3011 131.768 12.4545 128.536 12.4545H122.258V27ZM126.207 19.1307V15.608H127.599C128.984 15.608 129.815 16.1477 129.815 17.3977C129.815 18.6406 128.984 19.1307 127.599 19.1307H126.207Z" fill="#24262A"/>
<path d="M152.258 56H156.207V51.1989H157.57L160.127 56H164.417L161.462 50.5739C163.011 49.8281 163.934 48.4148 163.934 46.3977C163.934 43.3011 161.768 41.4545 158.536 41.4545H152.258V56ZM156.207 48.1307V44.608H157.599C158.984 44.608 159.815 45.1477 159.815 46.3977C159.815 47.6406 158.984 48.1307 157.599 48.1307H156.207Z" fill="#24262A"/>
<path d="M151.675 15.6364H156.05V27H159.942V15.6364H164.317V12.4545H151.675V15.6364Z" fill="#24262A"/>
<path d="M95.7569 27L96.595 24.2159H101.396L102.234 27H106.496L101.694 12.4545H96.2967L91.4956 27H95.7569ZM97.4899 21.2614L98.9387 16.4602H99.0524L100.501 21.2614H97.4899Z" fill="#24262A"/>
<path d="M105.069 48.7273C105.069 43.8693 101.944 41.2557 97.9956 41.2557C94.0183 41.2557 90.9217 43.8693 90.9217 48.7273C90.9217 53.5568 94.0183 56.1989 97.9956 56.1989C101.944 56.1989 105.069 53.5852 105.069 48.7273ZM101.007 48.7273C101.007 51.3409 99.9558 52.7614 97.9956 52.7614C96.0353 52.7614 94.9842 51.3409 94.9842 48.7273C94.9842 46.1136 96.0353 44.6932 97.9956 44.6932C99.9558 44.6932 101.007 46.1136 101.007 48.7273Z" fill="#24262A"/>
<path d="M41.8287 41.4545V50.4318C41.8287 51.7884 40.8556 52.7614 39.4991 52.7614C38.1426 52.7614 37.1696 51.7884 37.1696 50.4318V41.4545H33.2207V50.7727C33.2207 54.0966 35.7349 56.1705 39.4991 56.1705C43.2349 56.1705 45.7775 54.0966 45.7775 50.7727V41.4545H41.8287Z" fill="#24262A"/>
<path d="M32.2578 27H36.2067V22.1989H37.5703L40.1271 27H44.4169L41.4624 21.5739C43.0107 20.8281 43.9339 19.4148 43.9339 17.3977C43.9339 14.3011 41.7678 12.4545 38.5362 12.4545H32.2578V27ZM36.2067 19.1307V15.608H37.5987C38.9837 15.608 39.8146 16.1477 39.8146 17.3977C39.8146 18.6406 38.9837 19.1307 37.5987 19.1307H36.2067Z" fill="#24262A"/>
<path d="M62.2578 56H66.2067V51.1989H67.5703L70.1271 56H74.4169L71.4624 50.5739C73.0107 49.8281 73.9339 48.4148 73.9339 46.3977C73.9339 43.3011 71.7678 41.4545 68.5362 41.4545H62.2578V56ZM66.2067 48.1307V44.608H67.5987C68.9837 44.608 69.8146 45.1477 69.8146 46.3977C69.8146 47.6406 68.9837 48.1307 67.5987 48.1307H66.2067Z" fill="#24262A"/>
<path d="M61.6745 15.6364H66.0495V27H69.9416V15.6364H74.3166V12.4545H61.6745V15.6364Z" fill="#24262A"/>
<path d="M5.75692 27L6.59499 24.2159H11.3961L12.2342 27H16.4956L11.6944 12.4545H6.2967L1.49556 27H5.75692ZM7.48988 21.2614L8.93874 16.4602H9.05238L10.5012 21.2614H7.48988Z" fill="#24262A"/>
<path d="M15.0694 48.7273C15.0694 43.8693 11.9444 41.2557 7.99556 41.2557C4.01829 41.2557 0.921697 43.8693 0.921697 48.7273C0.921697 53.5568 4.01829 56.1989 7.99556 56.1989C11.9444 56.1989 15.0694 53.5852 15.0694 48.7273ZM11.0069 48.7273C11.0069 51.3409 9.95579 52.7614 7.99556 52.7614C6.03533 52.7614 4.9842 51.3409 4.9842 48.7273C4.9842 46.1136 6.03533 44.6932 7.99556 44.6932C9.95579 44.6932 11.0069 46.1136 11.0069 48.7273Z" fill="#24262A"/>
<path d="M491.829 41.4545V50.4318C491.829 51.7884 490.856 52.7614 489.499 52.7614C488.143 52.7614 487.17 51.7884 487.17 50.4318V41.4545H483.221V50.7727C483.221 54.0966 485.735 56.1705 489.499 56.1705C493.235 56.1705 495.778 54.0966 495.778 50.7727V41.4545H491.829Z" fill="#24262A"/>
<path d="M482.258 27H486.207V22.1989H487.57L490.127 27H494.417L491.462 21.5739C493.011 20.8281 493.934 19.4148 493.934 17.3977C493.934 14.3011 491.768 12.4545 488.536 12.4545H482.258V27ZM486.207 19.1307V15.608H487.599C488.984 15.608 489.815 16.1477 489.815 17.3977C489.815 18.6406 488.984 19.1307 487.599 19.1307H486.207Z" fill="#24262A"/>
<path d="M512.258 56H516.207V51.1989H517.57L520.127 56H524.417L521.462 50.5739C523.011 49.8281 523.934 48.4148 523.934 46.3977C523.934 43.3011 521.768 41.4545 518.536 41.4545H512.258V56ZM516.207 48.1307V44.608H517.599C518.984 44.608 519.815 45.1477 519.815 46.3977C519.815 47.6406 518.984 48.1307 517.599 48.1307H516.207Z" fill="#24262A"/>
<path d="M511.675 15.6364H516.05V27H519.942V15.6364H524.317V12.4545H511.675V15.6364Z" fill="#24262A"/>
<path d="M455.757 27L456.595 24.2159H461.396L462.234 27H466.496L461.694 12.4545H456.297L451.496 27H455.757ZM457.49 21.2614L458.939 16.4602H459.052L460.501 21.2614H457.49Z" fill="#24262A"/>
<path d="M465.069 48.7273C465.069 43.8693 461.944 41.2557 457.996 41.2557C454.018 41.2557 450.922 43.8693 450.922 48.7273C450.922 53.5568 454.018 56.1989 457.996 56.1989C461.944 56.1989 465.069 53.5852 465.069 48.7273ZM461.007 48.7273C461.007 51.3409 459.956 52.7614 457.996 52.7614C456.035 52.7614 454.984 51.3409 454.984 48.7273C454.984 46.1136 456.035 44.6932 457.996 44.6932C459.956 44.6932 461.007 46.1136 461.007 48.7273Z" fill="#24262A"/>
<path d="M761.829 41.4545V50.4318C761.829 51.7884 760.856 52.7614 759.499 52.7614C758.143 52.7614 757.17 51.7884 757.17 50.4318V41.4545H753.221V50.7727C753.221 54.0966 755.735 56.1705 759.499 56.1705C763.235 56.1705 765.778 54.0966 765.778 50.7727V41.4545H761.829Z" fill="#24262A"/>
<path d="M752.258 27H756.207V22.1989H757.57L760.127 27H764.417L761.462 21.5739C763.011 20.8281 763.934 19.4148 763.934 17.3977C763.934 14.3011 761.768 12.4545 758.536 12.4545H752.258V27ZM756.207 19.1307V15.608H757.599C758.984 15.608 759.815 16.1477 759.815 17.3977C759.815 18.6406 758.984 19.1307 757.599 19.1307H756.207Z" fill="#24262A"/>
<path d="M782.258 56H786.207V51.1989H787.57L790.127 56H794.417L791.462 50.5739C793.011 49.8281 793.934 48.4148 793.934 46.3977C793.934 43.3011 791.768 41.4545 788.536 41.4545H782.258V56ZM786.207 48.1307V44.608H787.599C788.984 44.608 789.815 45.1477 789.815 46.3977C789.815 47.6406 788.984 48.1307 787.599 48.1307H786.207Z" fill="#24262A"/>
<path d="M781.675 15.6364H786.05V27H789.942V15.6364H794.317V12.4545H781.675V15.6364Z" fill="#24262A"/>
<path d="M725.757 27L726.595 24.2159H731.396L732.234 27H736.496L731.694 12.4545H726.297L721.496 27H725.757ZM727.49 21.2614L728.939 16.4602H729.052L730.501 21.2614H727.49Z" fill="#24262A"/>
<path d="M735.069 48.7273C735.069 43.8693 731.944 41.2557 727.996 41.2557C724.018 41.2557 720.922 43.8693 720.922 48.7273C720.922 53.5568 724.018 56.1989 727.996 56.1989C731.944 56.1989 735.069 53.5852 735.069 48.7273ZM731.007 48.7273C731.007 51.3409 729.956 52.7614 727.996 52.7614C726.035 52.7614 724.984 51.3409 724.984 48.7273C724.984 46.1136 726.035 44.6932 727.996 44.6932C729.956 44.6932 731.007 46.1136 731.007 48.7273Z" fill="#24262A"/>
<path d="M1031.83 41.4545V50.4318C1031.83 51.7884 1030.86 52.7614 1029.5 52.7614C1028.14 52.7614 1027.17 51.7884 1027.17 50.4318V41.4545H1023.22V50.7727C1023.22 54.0966 1025.73 56.1705 1029.5 56.1705C1033.23 56.1705 1035.78 54.0966 1035.78 50.7727V41.4545H1031.83Z" fill="#24262A"/>
<path d="M1022.26 27H1026.21V22.1989H1027.57L1030.13 27H1034.42L1031.46 21.5739C1033.01 20.8281 1033.93 19.4148 1033.93 17.3977C1033.93 14.3011 1031.77 12.4545 1028.54 12.4545H1022.26V27ZM1026.21 19.1307V15.608H1027.6C1028.98 15.608 1029.81 16.1477 1029.81 17.3977C1029.81 18.6406 1028.98 19.1307 1027.6 19.1307H1026.21Z" fill="#24262A"/>
<path d="M1052.26 56H1056.21V51.1989H1057.57L1060.13 56H1064.42L1061.46 50.5739C1063.01 49.8281 1063.93 48.4148 1063.93 46.3977C1063.93 43.3011 1061.77 41.4545 1058.54 41.4545H1052.26V56ZM1056.21 48.1307V44.608H1057.6C1058.98 44.608 1059.81 45.1477 1059.81 46.3977C1059.81 47.6406 1058.98 48.1307 1057.6 48.1307H1056.21Z" fill="#24262A"/>
<path d="M1051.67 15.6364H1056.05V27H1059.94V15.6364H1064.32V12.4545H1051.67V15.6364Z" fill="#24262A"/>
<path d="M995.757 27L996.595 24.2159H1001.4L1002.23 27H1006.5L1001.69 12.4545H996.297L991.496 27H995.757ZM997.49 21.2614L998.939 16.4602H999.052L1000.5 21.2614H997.49Z" fill="#24262A"/>
<path d="M1005.07 48.7273C1005.07 43.8693 1001.94 41.2557 997.996 41.2557C994.018 41.2557 990.922 43.8693 990.922 48.7273C990.922 53.5568 994.018 56.1989 997.996 56.1989C1001.94 56.1989 1005.07 53.5852 1005.07 48.7273ZM1001.01 48.7273C1001.01 51.3409 999.956 52.7614 997.996 52.7614C996.035 52.7614 994.984 51.3409 994.984 48.7273C994.984 46.1136 996.035 44.6932 997.996 44.6932C999.956 44.6932 1001.01 46.1136 1001.01 48.7273Z" fill="#24262A"/>
<path d="M221.829 101.455V110.432C221.829 111.788 220.856 112.761 219.499 112.761C218.143 112.761 217.17 111.788 217.17 110.432V101.455H213.221V110.773C213.221 114.097 215.735 116.17 219.499 116.17C223.235 116.17 225.778 114.097 225.778 110.773V101.455H221.829Z" fill="#24262A"/>
<path d="M212.258 87H216.207V82.1989H217.57L220.127 87H224.417L221.462 81.5739C223.011 80.8281 223.934 79.4148 223.934 77.3977C223.934 74.3011 221.768 72.4545 218.536 72.4545H212.258V87ZM216.207 79.1307V75.608H217.599C218.984 75.608 219.815 76.1477 219.815 77.3977C219.815 78.6406 218.984 79.1307 217.599 79.1307H216.207Z" fill="#24262A"/>
<path d="M242.258 116H246.207V111.199H247.57L250.127 116H254.417L251.462 110.574C253.011 109.828 253.934 108.415 253.934 106.398C253.934 103.301 251.768 101.455 248.536 101.455H242.258V116ZM246.207 108.131V104.608H247.599C248.984 104.608 249.815 105.148 249.815 106.398C249.815 107.641 248.984 108.131 247.599 108.131H246.207Z" fill="#24262A"/>
<path d="M241.675 75.6364H246.05V87H249.942V75.6364H254.317V72.4545H241.675V75.6364Z" fill="#24262A"/>
<path d="M185.757 87L186.595 84.2159H191.396L192.234 87H196.496L191.694 72.4545H186.297L181.496 87H185.757ZM187.49 81.2614L188.939 76.4602H189.052L190.501 81.2614H187.49Z" fill="#24262A"/>
<path d="M195.069 108.727C195.069 103.869 191.944 101.256 187.996 101.256C184.018 101.256 180.922 103.869 180.922 108.727C180.922 113.557 184.018 116.199 187.996 116.199C191.944 116.199 195.069 113.585 195.069 108.727ZM191.007 108.727C191.007 111.341 189.956 112.761 187.996 112.761C186.035 112.761 184.984 111.341 184.984 108.727C184.984 106.114 186.035 104.693 187.996 104.693C189.956 104.693 191.007 106.114 191.007 108.727Z" fill="#24262A"/>
<path d="M131.829 101.455V110.432C131.829 111.788 130.856 112.761 129.499 112.761C128.143 112.761 127.17 111.788 127.17 110.432V101.455H123.221V110.773C123.221 114.097 125.735 116.17 129.499 116.17C133.235 116.17 135.778 114.097 135.778 110.773V101.455H131.829Z" fill="#24262A"/>
<path d="M122.258 87H126.207V82.1989H127.57L130.127 87H134.417L131.462 81.5739C133.011 80.8281 133.934 79.4148 133.934 77.3977C133.934 74.3011 131.768 72.4545 128.536 72.4545H122.258V87ZM126.207 79.1307V75.608H127.599C128.984 75.608 129.815 76.1477 129.815 77.3977C129.815 78.6406 128.984 79.1307 127.599 79.1307H126.207Z" fill="#24262A"/>
<path d="M152.258 116H156.207V111.199H157.57L160.127 116H164.417L161.462 110.574C163.011 109.828 163.934 108.415 163.934 106.398C163.934 103.301 161.768 101.455 158.536 101.455H152.258V116ZM156.207 108.131V104.608H157.599C158.984 104.608 159.815 105.148 159.815 106.398C159.815 107.641 158.984 108.131 157.599 108.131H156.207Z" fill="#24262A"/>
<path d="M151.675 75.6364H156.05V87H159.942V75.6364H164.317V72.4545H151.675V75.6364Z" fill="#24262A"/>
<path d="M95.7569 87L96.595 84.2159H101.396L102.234 87H106.496L101.694 72.4545H96.2967L91.4956 87H95.7569ZM97.4899 81.2614L98.9387 76.4602H99.0524L100.501 81.2614H97.4899Z" fill="#24262A"/>
<path d="M105.069 108.727C105.069 103.869 101.944 101.256 97.9956 101.256C94.0183 101.256 90.9217 103.869 90.9217 108.727C90.9217 113.557 94.0183 116.199 97.9956 116.199C101.944 116.199 105.069 113.585 105.069 108.727ZM101.007 108.727C101.007 111.341 99.9558 112.761 97.9956 112.761C96.0353 112.761 94.9842 111.341 94.9842 108.727C94.9842 106.114 96.0353 104.693 97.9956 104.693C99.9558 104.693 101.007 106.114 101.007 108.727Z" fill="#24262A"/>
<path d="M41.8287 101.455V110.432C41.8287 111.788 40.8556 112.761 39.4991 112.761C38.1426 112.761 37.1696 111.788 37.1696 110.432V101.455H33.2207V110.773C33.2207 114.097 35.7349 116.17 39.4991 116.17C43.2349 116.17 45.7775 114.097 45.7775 110.773V101.455H41.8287Z" fill="#24262A"/>
<path d="M32.2578 87H36.2067V82.1989H37.5703L40.1271 87H44.4169L41.4624 81.5739C43.0107 80.8281 43.9339 79.4148 43.9339 77.3977C43.9339 74.3011 41.7678 72.4545 38.5362 72.4545H32.2578V87ZM36.2067 79.1307V75.608H37.5987C38.9837 75.608 39.8146 76.1477 39.8146 77.3977C39.8146 78.6406 38.9837 79.1307 37.5987 79.1307H36.2067Z" fill="#24262A"/>
<path d="M62.2578 116H66.2067V111.199H67.5703L70.1271 116H74.4169L71.4624 110.574C73.0107 109.828 73.9339 108.415 73.9339 106.398C73.9339 103.301 71.7678 101.455 68.5362 101.455H62.2578V116ZM66.2067 108.131V104.608H67.5987C68.9837 104.608 69.8146 105.148 69.8146 106.398C69.8146 107.641 68.9837 108.131 67.5987 108.131H66.2067Z" fill="#24262A"/>
<path d="M61.6745 75.6364H66.0495V87H69.9416V75.6364H74.3166V72.4545H61.6745V75.6364Z" fill="#24262A"/>
<path d="M5.75692 87L6.59499 84.2159H11.3961L12.2342 87H16.4956L11.6944 72.4545H6.2967L1.49556 87H5.75692ZM7.48988 81.2614L8.93874 76.4602H9.05238L10.5012 81.2614H7.48988Z" fill="#24262A"/>
<path d="M15.0694 108.727C15.0694 103.869 11.9444 101.256 7.99556 101.256C4.01829 101.256 0.921697 103.869 0.921697 108.727C0.921697 113.557 4.01829 116.199 7.99556 116.199C11.9444 116.199 15.0694 113.585 15.0694 108.727ZM11.0069 108.727C11.0069 111.341 9.95579 112.761 7.99556 112.761C6.03533 112.761 4.9842 111.341 4.9842 108.727C4.9842 106.114 6.03533 104.693 7.99556 104.693C9.95579 104.693 11.0069 106.114 11.0069 108.727Z" fill="#24262A"/>
<path d="M491.829 101.455V110.432C491.829 111.788 490.856 112.761 489.499 112.761C488.143 112.761 487.17 111.788 487.17 110.432V101.455H483.221V110.773C483.221 114.097 485.735 116.17 489.499 116.17C493.235 116.17 495.778 114.097 495.778 110.773V101.455H491.829Z" fill="#24262A"/>
<path d="M482.258 87H486.207V82.1989H487.57L490.127 87H494.417L491.462 81.5739C493.011 80.8281 493.934 79.4148 493.934 77.3977C493.934 74.3011 491.768 72.4545 488.536 72.4545H482.258V87ZM486.207 79.1307V75.608H487.599C488.984 75.608 489.815 76.1477 489.815 77.3977C489.815 78.6406 488.984 79.1307 487.599 79.1307H486.207Z" fill="#24262A"/>
<path d="M512.258 116H516.207V111.199H517.57L520.127 116H524.417L521.462 110.574C523.011 109.828 523.934 108.415 523.934 106.398C523.934 103.301 521.768 101.455 518.536 101.455H512.258V116ZM516.207 108.131V104.608H517.599C518.984 104.608 519.815 105.148 519.815 106.398C519.815 107.641 518.984 108.131 517.599 108.131H516.207Z" fill="#24262A"/>
<path d="M511.675 75.6364H516.05V87H519.942V75.6364H524.317V72.4545H511.675V75.6364Z" fill="#24262A"/>
<path d="M455.757 87L456.595 84.2159H461.396L462.234 87H466.496L461.694 72.4545H456.297L451.496 87H455.757ZM457.49 81.2614L458.939 76.4602H459.052L460.501 81.2614H457.49Z" fill="#24262A"/>
<path d="M465.069 108.727C465.069 103.869 461.944 101.256 457.996 101.256C454.018 101.256 450.922 103.869 450.922 108.727C450.922 113.557 454.018 116.199 457.996 116.199C461.944 116.199 465.069 113.585 465.069 108.727ZM461.007 108.727C461.007 111.341 459.956 112.761 457.996 112.761C456.035 112.761 454.984 111.341 454.984 108.727C454.984 106.114 456.035 104.693 457.996 104.693C459.956 104.693 461.007 106.114 461.007 108.727Z" fill="#24262A"/>
<path d="M761.829 101.455V110.432C761.829 111.788 760.856 112.761 759.499 112.761C758.143 112.761 757.17 111.788 757.17 110.432V101.455H753.221V110.773C753.221 114.097 755.735 116.17 759.499 116.17C763.235 116.17 765.778 114.097 765.778 110.773V101.455H761.829Z" fill="#24262A"/>
<path d="M752.258 87H756.207V82.1989H757.57L760.127 87H764.417L761.462 81.5739C763.011 80.8281 763.934 79.4148 763.934 77.3977C763.934 74.3011 761.768 72.4545 758.536 72.4545H752.258V87ZM756.207 79.1307V75.608H757.599C758.984 75.608 759.815 76.1477 759.815 77.3977C759.815 78.6406 758.984 79.1307 757.599 79.1307H756.207Z" fill="#24262A"/>
<path d="M782.258 116H786.207V111.199H787.57L790.127 116H794.417L791.462 110.574C793.011 109.828 793.934 108.415 793.934 106.398C793.934 103.301 791.768 101.455 788.536 101.455H782.258V116ZM786.207 108.131V104.608H787.599C788.984 104.608 789.815 105.148 789.815 106.398C789.815 107.641 788.984 108.131 787.599 108.131H786.207Z" fill="#24262A"/>
<path d="M781.675 75.6364H786.05V87H789.942V75.6364H794.317V72.4545H781.675V75.6364Z" fill="#24262A"/>
<path d="M725.757 87L726.595 84.2159H731.396L732.234 87H736.496L731.694 72.4545H726.297L721.496 87H725.757ZM727.49 81.2614L728.939 76.4602H729.052L730.501 81.2614H727.49Z" fill="#24262A"/>
<path d="M735.069 108.727C735.069 103.869 731.944 101.256 727.996 101.256C724.018 101.256 720.922 103.869 720.922 108.727C720.922 113.557 724.018 116.199 727.996 116.199C731.944 116.199 735.069 113.585 735.069 108.727ZM731.007 108.727C731.007 111.341 729.956 112.761 727.996 112.761C726.035 112.761 724.984 111.341 724.984 108.727C724.984 106.114 726.035 104.693 727.996 104.693C729.956 104.693 731.007 106.114 731.007 108.727Z" fill="#24262A"/>
<path d="M1031.83 101.455V110.432C1031.83 111.788 1030.86 112.761 1029.5 112.761C1028.14 112.761 1027.17 111.788 1027.17 110.432V101.455H1023.22V110.773C1023.22 114.097 1025.73 116.17 1029.5 116.17C1033.23 116.17 1035.78 114.097 1035.78 110.773V101.455H1031.83Z" fill="#24262A"/>
<path d="M1022.26 87H1026.21V82.1989H1027.57L1030.13 87H1034.42L1031.46 81.5739C1033.01 80.8281 1033.93 79.4148 1033.93 77.3977C1033.93 74.3011 1031.77 72.4545 1028.54 72.4545H1022.26V87ZM1026.21 79.1307V75.608H1027.6C1028.98 75.608 1029.81 76.1477 1029.81 77.3977C1029.81 78.6406 1028.98 79.1307 1027.6 79.1307H1026.21Z" fill="#24262A"/>
<path d="M1052.26 116H1056.21V111.199H1057.57L1060.13 116H1064.42L1061.46 110.574C1063.01 109.828 1063.93 108.415 1063.93 106.398C1063.93 103.301 1061.77 101.455 1058.54 101.455H1052.26V116ZM1056.21 108.131V104.608H1057.6C1058.98 104.608 1059.81 105.148 1059.81 106.398C1059.81 107.641 1058.98 108.131 1057.6 108.131H1056.21Z" fill="#24262A"/>
<path d="M1051.67 75.6364H1056.05V87H1059.94V75.6364H1064.32V72.4545H1051.67V75.6364Z" fill="#24262A"/>
<path d="M995.757 87L996.595 84.2159H1001.4L1002.23 87H1006.5L1001.69 72.4545H996.297L991.496 87H995.757ZM997.49 81.2614L998.939 76.4602H999.052L1000.5 81.2614H997.49Z" fill="#24262A"/>
<path d="M1005.07 108.727C1005.07 103.869 1001.94 101.256 997.996 101.256C994.018 101.256 990.922 103.869 990.922 108.727C990.922 113.557 994.018 116.199 997.996 116.199C1001.94 116.199 1005.07 113.585 1005.07 108.727ZM1001.01 108.727C1001.01 111.341 999.956 112.761 997.996 112.761C996.035 112.761 994.984 111.341 994.984 108.727C994.984 106.114 996.035 104.693 997.996 104.693C999.956 104.693 1001.01 106.114 1001.01 108.727Z" fill="#24262A"/>
<path d="M311.829 41.4545V50.4318C311.829 51.7884 310.856 52.7614 309.499 52.7614C308.143 52.7614 307.17 51.7884 307.17 50.4318V41.4545H303.221V50.7727C303.221 54.0966 305.735 56.1705 309.499 56.1705C313.235 56.1705 315.778 54.0966 315.778 50.7727V41.4545H311.829Z" fill="#24262A"/>
<path d="M302.258 27H306.207V22.1989H307.57L310.127 27H314.417L311.462 21.5739C313.011 20.8281 313.934 19.4148 313.934 17.3977C313.934 14.3011 311.768 12.4545 308.536 12.4545H302.258V27ZM306.207 19.1307V15.608H307.599C308.984 15.608 309.815 16.1477 309.815 17.3977C309.815 18.6406 308.984 19.1307 307.599 19.1307H306.207Z" fill="#24262A"/>
<path d="M332.258 56H336.207V51.1989H337.57L340.127 56H344.417L341.462 50.5739C343.011 49.8281 343.934 48.4148 343.934 46.3977C343.934 43.3011 341.768 41.4545 338.536 41.4545H332.258V56ZM336.207 48.1307V44.608H337.599C338.984 44.608 339.815 45.1477 339.815 46.3977C339.815 47.6406 338.984 48.1307 337.599 48.1307H336.207Z" fill="#24262A"/>
<path d="M331.675 15.6364H336.05V27H339.942V15.6364H344.317V12.4545H331.675V15.6364Z" fill="#24262A"/>
<path d="M275.757 27L276.595 24.2159H281.396L282.234 27H286.496L281.694 12.4545H276.297L271.496 27H275.757ZM277.49 21.2614L278.939 16.4602H279.052L280.501 21.2614H277.49Z" fill="#24262A"/>
<path d="M285.069 48.7273C285.069 43.8693 281.944 41.2557 277.996 41.2557C274.018 41.2557 270.922 43.8693 270.922 48.7273C270.922 53.5568 274.018 56.1989 277.996 56.1989C281.944 56.1989 285.069 53.5852 285.069 48.7273ZM281.007 48.7273C281.007 51.3409 279.956 52.7614 277.996 52.7614C276.035 52.7614 274.984 51.3409 274.984 48.7273C274.984 46.1136 276.035 44.6932 277.996 44.6932C279.956 44.6932 281.007 46.1136 281.007 48.7273Z" fill="#24262A"/>
<path d="M581.829 41.4545V50.4318C581.829 51.7884 580.856 52.7614 579.499 52.7614C578.143 52.7614 577.17 51.7884 577.17 50.4318V41.4545H573.221V50.7727C573.221 54.0966 575.735 56.1705 579.499 56.1705C583.235 56.1705 585.778 54.0966 585.778 50.7727V41.4545H581.829Z" fill="#24262A"/>
<path d="M572.258 27H576.207V22.1989H577.57L580.127 27H584.417L581.462 21.5739C583.011 20.8281 583.934 19.4148 583.934 17.3977C583.934 14.3011 581.768 12.4545 578.536 12.4545H572.258V27ZM576.207 19.1307V15.608H577.599C578.984 15.608 579.815 16.1477 579.815 17.3977C579.815 18.6406 578.984 19.1307 577.599 19.1307H576.207Z" fill="#24262A"/>
<path d="M602.258 56H606.207V51.1989H607.57L610.127 56H614.417L611.462 50.5739C613.011 49.8281 613.934 48.4148 613.934 46.3977C613.934 43.3011 611.768 41.4545 608.536 41.4545H602.258V56ZM606.207 48.1307V44.608H607.599C608.984 44.608 609.815 45.1477 609.815 46.3977C609.815 47.6406 608.984 48.1307 607.599 48.1307H606.207Z" fill="#24262A"/>
<path d="M601.675 15.6364H606.05V27H609.942V15.6364H614.317V12.4545H601.675V15.6364Z" fill="#24262A"/>
<path d="M545.757 27L546.595 24.2159H551.396L552.234 27H556.496L551.694 12.4545H546.297L541.496 27H545.757ZM547.49 21.2614L548.939 16.4602H549.052L550.501 21.2614H547.49Z" fill="#24262A"/>
<path d="M555.069 48.7273C555.069 43.8693 551.944 41.2557 547.996 41.2557C544.018 41.2557 540.922 43.8693 540.922 48.7273C540.922 53.5568 544.018 56.1989 547.996 56.1989C551.944 56.1989 555.069 53.5852 555.069 48.7273ZM551.007 48.7273C551.007 51.3409 549.956 52.7614 547.996 52.7614C546.035 52.7614 544.984 51.3409 544.984 48.7273C544.984 46.1136 546.035 44.6932 547.996 44.6932C549.956 44.6932 551.007 46.1136 551.007 48.7273Z" fill="#24262A"/>
<path d="M851.829 41.4545V50.4318C851.829 51.7884 850.856 52.7614 849.499 52.7614C848.143 52.7614 847.17 51.7884 847.17 50.4318V41.4545H843.221V50.7727C843.221 54.0966 845.735 56.1705 849.499 56.1705C853.235 56.1705 855.778 54.0966 855.778 50.7727V41.4545H851.829Z" fill="#24262A"/>
<path d="M842.258 27H846.207V22.1989H847.57L850.127 27H854.417L851.462 21.5739C853.011 20.8281 853.934 19.4148 853.934 17.3977C853.934 14.3011 851.768 12.4545 848.536 12.4545H842.258V27ZM846.207 19.1307V15.608H847.599C848.984 15.608 849.815 16.1477 849.815 17.3977C849.815 18.6406 848.984 19.1307 847.599 19.1307H846.207Z" fill="#24262A"/>
<path d="M872.258 56H876.207V51.1989H877.57L880.127 56H884.417L881.462 50.5739C883.011 49.8281 883.934 48.4148 883.934 46.3977C883.934 43.3011 881.768 41.4545 878.536 41.4545H872.258V56ZM876.207 48.1307V44.608H877.599C878.984 44.608 879.815 45.1477 879.815 46.3977C879.815 47.6406 878.984 48.1307 877.599 48.1307H876.207Z" fill="#24262A"/>
<path d="M871.675 15.6364H876.05V27H879.942V15.6364H884.317V12.4545H871.675V15.6364Z" fill="#24262A"/>
<path d="M815.757 27L816.595 24.2159H821.396L822.234 27H826.496L821.694 12.4545H816.297L811.496 27H815.757ZM817.49 21.2614L818.939 16.4602H819.052L820.501 21.2614H817.49Z" fill="#24262A"/>
<path d="M825.069 48.7273C825.069 43.8693 821.944 41.2557 817.996 41.2557C814.018 41.2557 810.922 43.8693 810.922 48.7273C810.922 53.5568 814.018 56.1989 817.996 56.1989C821.944 56.1989 825.069 53.5852 825.069 48.7273ZM821.007 48.7273C821.007 51.3409 819.956 52.7614 817.996 52.7614C816.035 52.7614 814.984 51.3409 814.984 48.7273C814.984 46.1136 816.035 44.6932 817.996 44.6932C819.956 44.6932 821.007 46.1136 821.007 48.7273Z" fill="#24262A"/>
<path d="M1121.83 41.4545V50.4318C1121.83 51.7884 1120.86 52.7614 1119.5 52.7614C1118.14 52.7614 1117.17 51.7884 1117.17 50.4318V41.4545H1113.22V50.7727C1113.22 54.0966 1115.73 56.1705 1119.5 56.1705C1123.23 56.1705 1125.78 54.0966 1125.78 50.7727V41.4545H1121.83Z" fill="#24262A"/>
<path d="M1112.26 27H1116.21V22.1989H1117.57L1120.13 27H1124.42L1121.46 21.5739C1123.01 20.8281 1123.93 19.4148 1123.93 17.3977C1123.93 14.3011 1121.77 12.4545 1118.54 12.4545H1112.26V27ZM1116.21 19.1307V15.608H1117.6C1118.98 15.608 1119.81 16.1477 1119.81 17.3977C1119.81 18.6406 1118.98 19.1307 1117.6 19.1307H1116.21Z" fill="#24262A"/>
<path d="M1142.26 56H1146.21V51.1989H1147.57L1150.13 56H1154.42L1151.46 50.5739C1153.01 49.8281 1153.93 48.4148 1153.93 46.3977C1153.93 43.3011 1151.77 41.4545 1148.54 41.4545H1142.26V56ZM1146.21 48.1307V44.608H1147.6C1148.98 44.608 1149.81 45.1477 1149.81 46.3977C1149.81 47.6406 1148.98 48.1307 1147.6 48.1307H1146.21Z" fill="#24262A"/>
<path d="M1141.67 15.6364H1146.05V27H1149.94V15.6364H1154.32V12.4545H1141.67V15.6364Z" fill="#24262A"/>
<path d="M1085.76 27L1086.59 24.2159H1091.4L1092.23 27H1096.5L1091.69 12.4545H1086.3L1081.5 27H1085.76ZM1087.49 21.2614L1088.94 16.4602H1089.05L1090.5 21.2614H1087.49Z" fill="#24262A"/>
<path d="M1095.07 48.7273C1095.07 43.8693 1091.94 41.2557 1088 41.2557C1084.02 41.2557 1080.92 43.8693 1080.92 48.7273C1080.92 53.5568 1084.02 56.1989 1088 56.1989C1091.94 56.1989 1095.07 53.5852 1095.07 48.7273ZM1091.01 48.7273C1091.01 51.3409 1089.96 52.7614 1088 52.7614C1086.04 52.7614 1084.98 51.3409 1084.98 48.7273C1084.98 46.1136 1086.04 44.6932 1088 44.6932C1089.96 44.6932 1091.01 46.1136 1091.01 48.7273Z" fill="#24262A"/>
<path d="M303.258 116H307.207V111.199H308.57L311.127 116H315.417L312.462 110.574C314.011 109.828 314.934 108.415 314.934 106.398C314.934 103.301 312.768 101.455 309.536 101.455H303.258V116ZM307.207 108.131V104.608H308.599C309.984 104.608 310.815 105.148 310.815 106.398C310.815 107.641 309.984 108.131 308.599 108.131H307.207Z" fill="#24262A"/>
<path d="M302.258 87H306.207V82.1989H307.57L310.127 87H314.417L311.462 81.5739C313.011 80.8281 313.934 79.4148 313.934 77.3977C313.934 74.3011 311.768 72.4545 308.536 72.4545H302.258V87ZM306.207 79.1307V75.608H307.599C308.984 75.608 309.815 76.1477 309.815 77.3977C309.815 78.6406 308.984 79.1307 307.599 79.1307H306.207Z" fill="#24262A"/>
<path d="M332.258 116H336.207V111.199H337.57L340.127 116H344.417L341.462 110.574C343.011 109.828 343.934 108.415 343.934 106.398C343.934 103.301 341.768 101.455 338.536 101.455H332.258V116ZM336.207 108.131V104.608H337.599C338.984 104.608 339.815 105.148 339.815 106.398C339.815 107.641 338.984 108.131 337.599 108.131H336.207Z" fill="#24262A"/>
<path d="M331.675 75.6364H336.05V87H339.942V75.6364H344.317V72.4545H331.675V75.6364Z" fill="#24262A"/>
<path d="M275.757 87L276.595 84.2159H281.396L282.234 87H286.496L281.694 72.4545H276.297L271.496 87H275.757ZM277.49 81.2614L278.939 76.4602H279.052L280.501 81.2614H277.49Z" fill="#24262A"/>
<path d="M285.069 108.727C285.069 103.869 281.944 101.256 277.996 101.256C274.018 101.256 270.922 103.869 270.922 108.727C270.922 113.557 274.018 116.199 277.996 116.199C281.944 116.199 285.069 113.585 285.069 108.727ZM281.007 108.727C281.007 111.341 279.956 112.761 277.996 112.761C276.035 112.761 274.984 111.341 274.984 108.727C274.984 106.114 276.035 104.693 277.996 104.693C279.956 104.693 281.007 106.114 281.007 108.727Z" fill="#24262A"/>
<path d="M573.258 116H577.207V111.199H578.57L581.127 116H585.417L582.462 110.574C584.011 109.828 584.934 108.415 584.934 106.398C584.934 103.301 582.768 101.455 579.536 101.455H573.258V116ZM577.207 108.131V104.608H578.599C579.984 104.608 580.815 105.148 580.815 106.398C580.815 107.641 579.984 108.131 578.599 108.131H577.207Z" fill="#24262A"/>
<path d="M572.258 87H576.207V82.1989H577.57L580.127 87H584.417L581.462 81.5739C583.011 80.8281 583.934 79.4148 583.934 77.3977C583.934 74.3011 581.768 72.4545 578.536 72.4545H572.258V87ZM576.207 79.1307V75.608H577.599C578.984 75.608 579.815 76.1477 579.815 77.3977C579.815 78.6406 578.984 79.1307 577.599 79.1307H576.207Z" fill="#24262A"/>
<path d="M602.258 116H606.207V111.199H607.57L610.127 116H614.417L611.462 110.574C613.011 109.828 613.934 108.415 613.934 106.398C613.934 103.301 611.768 101.455 608.536 101.455H602.258V116ZM606.207 108.131V104.608H607.599C608.984 104.608 609.815 105.148 609.815 106.398C609.815 107.641 608.984 108.131 607.599 108.131H606.207Z" fill="#24262A"/>
<path d="M601.675 75.6364H606.05V87H609.942V75.6364H614.317V72.4545H601.675V75.6364Z" fill="#24262A"/>
<path d="M545.757 87L546.595 84.2159H551.396L552.234 87H556.496L551.694 72.4545H546.297L541.496 87H545.757ZM547.49 81.2614L548.939 76.4602H549.052L550.501 81.2614H547.49Z" fill="#24262A"/>
<path d="M555.069 108.727C555.069 103.869 551.944 101.256 547.996 101.256C544.018 101.256 540.922 103.869 540.922 108.727C540.922 113.557 544.018 116.199 547.996 116.199C551.944 116.199 555.069 113.585 555.069 108.727ZM551.007 108.727C551.007 111.341 549.956 112.761 547.996 112.761C546.035 112.761 544.984 111.341 544.984 108.727C544.984 106.114 546.035 104.693 547.996 104.693C549.956 104.693 551.007 106.114 551.007 108.727Z" fill="#24262A"/>
<path d="M843.258 116H847.207V111.199H848.57L851.127 116H855.417L852.462 110.574C854.011 109.828 854.934 108.415 854.934 106.398C854.934 103.301 852.768 101.455 849.536 101.455H843.258V116ZM847.207 108.131V104.608H848.599C849.984 104.608 850.815 105.148 850.815 106.398C850.815 107.641 849.984 108.131 848.599 108.131H847.207Z" fill="#24262A"/>
<path d="M842.258 87H846.207V82.1989H847.57L850.127 87H854.417L851.462 81.5739C853.011 80.8281 853.934 79.4148 853.934 77.3977C853.934 74.3011 851.768 72.4545 848.536 72.4545H842.258V87ZM846.207 79.1307V75.608H847.599C848.984 75.608 849.815 76.1477 849.815 77.3977C849.815 78.6406 848.984 79.1307 847.599 79.1307H846.207Z" fill="#24262A"/>
<path d="M872.258 116H876.207V111.199H877.57L880.127 116H884.417L881.462 110.574C883.011 109.828 883.934 108.415 883.934 106.398C883.934 103.301 881.768 101.455 878.536 101.455H872.258V116ZM876.207 108.131V104.608H877.599C878.984 104.608 879.815 105.148 879.815 106.398C879.815 107.641 878.984 108.131 877.599 108.131H876.207Z" fill="#24262A"/>
<path d="M871.675 75.6364H876.05V87H879.942V75.6364H884.317V72.4545H871.675V75.6364Z" fill="#24262A"/>
<path d="M815.757 87L816.595 84.2159H821.396L822.234 87H826.496L821.694 72.4545H816.297L811.496 87H815.757ZM817.49 81.2614L818.939 76.4602H819.052L820.501 81.2614H817.49Z" fill="#24262A"/>
<path d="M825.069 108.727C825.069 103.869 821.944 101.256 817.996 101.256C814.018 101.256 810.922 103.869 810.922 108.727C810.922 113.557 814.018 116.199 817.996 116.199C821.944 116.199 825.069 113.585 825.069 108.727ZM821.007 108.727C821.007 111.341 819.956 112.761 817.996 112.761C816.035 112.761 814.984 111.341 814.984 108.727C814.984 106.114 816.035 104.693 817.996 104.693C819.956 104.693 821.007 106.114 821.007 108.727Z" fill="#24262A"/>
<path d="M1113.26 116H1117.21V111.199H1118.57L1121.13 116H1125.42L1122.46 110.574C1124.01 109.828 1124.93 108.415 1124.93 106.398C1124.93 103.301 1122.77 101.455 1119.54 101.455H1113.26V116ZM1117.21 108.131V104.608H1118.6C1119.98 104.608 1120.81 105.148 1120.81 106.398C1120.81 107.641 1119.98 108.131 1118.6 108.131H1117.21Z" fill="#24262A"/>
<path d="M1112.26 87H1116.21V82.1989H1117.57L1120.13 87H1124.42L1121.46 81.5739C1123.01 80.8281 1123.93 79.4148 1123.93 77.3977C1123.93 74.3011 1121.77 72.4545 1118.54 72.4545H1112.26V87ZM1116.21 79.1307V75.608H1117.6C1118.98 75.608 1119.81 76.1477 1119.81 77.3977C1119.81 78.6406 1118.98 79.1307 1117.6 79.1307H1116.21Z" fill="#24262A"/>
<path d="M1142.26 116H1146.21V111.199H1147.57L1150.13 116H1154.42L1151.46 110.574C1153.01 109.828 1153.93 108.415 1153.93 106.398C1153.93 103.301 1151.77 101.455 1148.54 101.455H1142.26V116ZM1146.21 108.131V104.608H1147.6C1148.98 104.608 1149.81 105.148 1149.81 106.398C1149.81 107.641 1148.98 108.131 1147.6 108.131H1146.21Z" fill="#24262A"/>
<path d="M1141.67 75.6364H1146.05V87H1149.94V75.6364H1154.32V72.4545H1141.67V75.6364Z" fill="#24262A"/>
<path d="M1085.76 87L1086.59 84.2159H1091.4L1092.23 87H1096.5L1091.69 72.4545H1086.3L1081.5 87H1085.76ZM1087.49 81.2614L1088.94 76.4602H1089.05L1090.5 81.2614H1087.49Z" fill="#24262A"/>
<path d="M1095.07 108.727C1095.07 103.869 1091.94 101.256 1088 101.256C1084.02 101.256 1080.92 103.869 1080.92 108.727C1080.92 113.557 1084.02 116.199 1088 116.199C1091.94 116.199 1095.07 113.585 1095.07 108.727ZM1091.01 108.727C1091.01 111.341 1089.96 112.761 1088 112.761C1086.04 112.761 1084.98 111.341 1084.98 108.727C1084.98 106.114 1086.04 104.693 1088 104.693C1089.96 104.693 1091.01 106.114 1091.01 108.727Z" fill="#24262A"/>
<path d="M401.829 41.4545V50.4318C401.829 51.7884 400.856 52.7614 399.499 52.7614C398.143 52.7614 397.17 51.7884 397.17 50.4318V41.4545H393.221V50.7727C393.221 54.0966 395.735 56.1705 399.499 56.1705C403.235 56.1705 405.778 54.0966 405.778 50.7727V41.4545H401.829Z" fill="#24262A"/>
<path d="M392.258 27H396.207V22.1989H397.57L400.127 27H404.417L401.462 21.5739C403.011 20.8281 403.934 19.4148 403.934 17.3977C403.934 14.3011 401.768 12.4545 398.536 12.4545H392.258V27ZM396.207 19.1307V15.608H397.599C398.984 15.608 399.815 16.1477 399.815 17.3977C399.815 18.6406 398.984 19.1307 397.599 19.1307H396.207Z" fill="#24262A"/>
<path d="M422.258 56H426.207V51.1989H427.57L430.127 56H434.417L431.462 50.5739C433.011 49.8281 433.934 48.4148 433.934 46.3977C433.934 43.3011 431.768 41.4545 428.536 41.4545H422.258V56ZM426.207 48.1307V44.608H427.599C428.984 44.608 429.815 45.1477 429.815 46.3977C429.815 47.6406 428.984 48.1307 427.599 48.1307H426.207Z" fill="#24262A"/>
<path d="M421.675 15.6364H426.05V27H429.942V15.6364H434.317V12.4545H421.675V15.6364Z" fill="#24262A"/>
<path d="M365.757 27L366.595 24.2159H371.396L372.234 27H376.496L371.694 12.4545H366.297L361.496 27H365.757ZM367.49 21.2614L368.939 16.4602H369.052L370.501 21.2614H367.49Z" fill="#24262A"/>
<path d="M375.069 48.7273C375.069 43.8693 371.944 41.2557 367.996 41.2557C364.018 41.2557 360.922 43.8693 360.922 48.7273C360.922 53.5568 364.018 56.1989 367.996 56.1989C371.944 56.1989 375.069 53.5852 375.069 48.7273ZM371.007 48.7273C371.007 51.3409 369.956 52.7614 367.996 52.7614C366.035 52.7614 364.984 51.3409 364.984 48.7273C364.984 46.1136 366.035 44.6932 367.996 44.6932C369.956 44.6932 371.007 46.1136 371.007 48.7273Z" fill="#24262A"/>
<path d="M671.829 41.4545V50.4318C671.829 51.7884 670.856 52.7614 669.499 52.7614C668.143 52.7614 667.17 51.7884 667.17 50.4318V41.4545H663.221V50.7727C663.221 54.0966 665.735 56.1705 669.499 56.1705C673.235 56.1705 675.778 54.0966 675.778 50.7727V41.4545H671.829Z" fill="#24262A"/>
<path d="M662.258 27H666.207V22.1989H667.57L670.127 27H674.417L671.462 21.5739C673.011 20.8281 673.934 19.4148 673.934 17.3977C673.934 14.3011 671.768 12.4545 668.536 12.4545H662.258V27ZM666.207 19.1307V15.608H667.599C668.984 15.608 669.815 16.1477 669.815 17.3977C669.815 18.6406 668.984 19.1307 667.599 19.1307H666.207Z" fill="#24262A"/>
<path d="M692.258 56H696.207V51.1989H697.57L700.127 56H704.417L701.462 50.5739C703.011 49.8281 703.934 48.4148 703.934 46.3977C703.934 43.3011 701.768 41.4545 698.536 41.4545H692.258V56ZM696.207 48.1307V44.608H697.599C698.984 44.608 699.815 45.1477 699.815 46.3977C699.815 47.6406 698.984 48.1307 697.599 48.1307H696.207Z" fill="#24262A"/>
<path d="M691.675 15.6364H696.05V27H699.942V15.6364H704.317V12.4545H691.675V15.6364Z" fill="#24262A"/>
<path d="M635.757 27L636.595 24.2159H641.396L642.234 27H646.496L641.694 12.4545H636.297L631.496 27H635.757ZM637.49 21.2614L638.939 16.4602H639.052L640.501 21.2614H637.49Z" fill="#24262A"/>
<path d="M645.069 48.7273C645.069 43.8693 641.944 41.2557 637.996 41.2557C634.018 41.2557 630.922 43.8693 630.922 48.7273C630.922 53.5568 634.018 56.1989 637.996 56.1989C641.944 56.1989 645.069 53.5852 645.069 48.7273ZM641.007 48.7273C641.007 51.3409 639.956 52.7614 637.996 52.7614C636.035 52.7614 634.984 51.3409 634.984 48.7273C634.984 46.1136 636.035 44.6932 637.996 44.6932C639.956 44.6932 641.007 46.1136 641.007 48.7273Z" fill="#24262A"/>
<path d="M941.829 41.4545V50.4318C941.829 51.7884 940.856 52.7614 939.499 52.7614C938.143 52.7614 937.17 51.7884 937.17 50.4318V41.4545H933.221V50.7727C933.221 54.0966 935.735 56.1705 939.499 56.1705C943.235 56.1705 945.778 54.0966 945.778 50.7727V41.4545H941.829Z" fill="#24262A"/>
<path d="M932.258 27H936.207V22.1989H937.57L940.127 27H944.417L941.462 21.5739C943.011 20.8281 943.934 19.4148 943.934 17.3977C943.934 14.3011 941.768 12.4545 938.536 12.4545H932.258V27ZM936.207 19.1307V15.608H937.599C938.984 15.608 939.815 16.1477 939.815 17.3977C939.815 18.6406 938.984 19.1307 937.599 19.1307H936.207Z" fill="#24262A"/>
<path d="M962.258 56H966.207V51.1989H967.57L970.127 56H974.417L971.462 50.5739C973.011 49.8281 973.934 48.4148 973.934 46.3977C973.934 43.3011 971.768 41.4545 968.536 41.4545H962.258V56ZM966.207 48.1307V44.608H967.599C968.984 44.608 969.815 45.1477 969.815 46.3977C969.815 47.6406 968.984 48.1307 967.599 48.1307H966.207Z" fill="#24262A"/>
<path d="M961.675 15.6364H966.05V27H969.942V15.6364H974.317V12.4545H961.675V15.6364Z" fill="#24262A"/>
<path d="M905.757 27L906.595 24.2159H911.396L912.234 27H916.496L911.694 12.4545H906.297L901.496 27H905.757ZM907.49 21.2614L908.939 16.4602H909.052L910.501 21.2614H907.49Z" fill="#24262A"/>
<path d="M915.069 48.7273C915.069 43.8693 911.944 41.2557 907.996 41.2557C904.018 41.2557 900.922 43.8693 900.922 48.7273C900.922 53.5568 904.018 56.1989 907.996 56.1989C911.944 56.1989 915.069 53.5852 915.069 48.7273ZM911.007 48.7273C911.007 51.3409 909.956 52.7614 907.996 52.7614C906.035 52.7614 904.984 51.3409 904.984 48.7273C904.984 46.1136 906.035 44.6932 907.996 44.6932C909.956 44.6932 911.007 46.1136 911.007 48.7273Z" fill="#24262A"/>
<path d="M1211.83 41.4545V50.4318C1211.83 51.7884 1210.86 52.7614 1209.5 52.7614C1208.14 52.7614 1207.17 51.7884 1207.17 50.4318V41.4545H1203.22V50.7727C1203.22 54.0966 1205.73 56.1705 1209.5 56.1705C1213.23 56.1705 1215.78 54.0966 1215.78 50.7727V41.4545H1211.83Z" fill="#24262A"/>
<path d="M1202.26 27H1206.21V22.1989H1207.57L1210.13 27H1214.42L1211.46 21.5739C1213.01 20.8281 1213.93 19.4148 1213.93 17.3977C1213.93 14.3011 1211.77 12.4545 1208.54 12.4545H1202.26V27ZM1206.21 19.1307V15.608H1207.6C1208.98 15.608 1209.81 16.1477 1209.81 17.3977C1209.81 18.6406 1208.98 19.1307 1207.6 19.1307H1206.21Z" fill="#24262A"/>
<path d="M1232.26 56H1236.21V51.1989H1237.57L1240.13 56H1244.42L1241.46 50.5739C1243.01 49.8281 1243.93 48.4148 1243.93 46.3977C1243.93 43.3011 1241.77 41.4545 1238.54 41.4545H1232.26V56ZM1236.21 48.1307V44.608H1237.6C1238.98 44.608 1239.81 45.1477 1239.81 46.3977C1239.81 47.6406 1238.98 48.1307 1237.6 48.1307H1236.21Z" fill="#24262A"/>
<path d="M1231.67 15.6364H1236.05V27H1239.94V15.6364H1244.32V12.4545H1231.67V15.6364Z" fill="#24262A"/>
<path d="M1175.76 27L1176.59 24.2159H1181.4L1182.23 27H1186.5L1181.69 12.4545H1176.3L1171.5 27H1175.76ZM1177.49 21.2614L1178.94 16.4602H1179.05L1180.5 21.2614H1177.49Z" fill="#24262A"/>
<path d="M1185.07 48.7273C1185.07 43.8693 1181.94 41.2557 1178 41.2557C1174.02 41.2557 1170.92 43.8693 1170.92 48.7273C1170.92 53.5568 1174.02 56.1989 1178 56.1989C1181.94 56.1989 1185.07 53.5852 1185.07 48.7273ZM1181.01 48.7273C1181.01 51.3409 1179.96 52.7614 1178 52.7614C1176.04 52.7614 1174.98 51.3409 1174.98 48.7273C1174.98 46.1136 1176.04 44.6932 1178 44.6932C1179.96 44.6932 1181.01 46.1136 1181.01 48.7273Z" fill="#24262A"/>
<path d="M1301.83 41.4545V50.4318C1301.83 51.7884 1300.86 52.7614 1299.5 52.7614C1298.14 52.7614 1297.17 51.7884 1297.17 50.4318V41.4545H1293.22V50.7727C1293.22 54.0966 1295.73 56.1705 1299.5 56.1705C1303.23 56.1705 1305.78 54.0966 1305.78 50.7727V41.4545H1301.83Z" fill="#24262A"/>
<path d="M1292.26 27H1296.21V22.1989H1297.57L1300.13 27H1304.42L1301.46 21.5739C1303.01 20.8281 1303.93 19.4148 1303.93 17.3977C1303.93 14.3011 1301.77 12.4545 1298.54 12.4545H1292.26V27ZM1296.21 19.1307V15.608H1297.6C1298.98 15.608 1299.81 16.1477 1299.81 17.3977C1299.81 18.6406 1298.98 19.1307 1297.6 19.1307H1296.21Z" fill="#24262A"/>
<path d="M1322.26 56H1326.21V51.1989H1327.57L1330.13 56H1334.42L1331.46 50.5739C1333.01 49.8281 1333.93 48.4148 1333.93 46.3977C1333.93 43.3011 1331.77 41.4545 1328.54 41.4545H1322.26V56ZM1326.21 48.1307V44.608H1327.6C1328.98 44.608 1329.81 45.1477 1329.81 46.3977C1329.81 47.6406 1328.98 48.1307 1327.6 48.1307H1326.21Z" fill="#24262A"/>
<path d="M1321.67 15.6364H1326.05V27H1329.94V15.6364H1334.32V12.4545H1321.67V15.6364Z" fill="#24262A"/>
<path d="M1265.76 27L1266.59 24.2159H1271.4L1272.23 27H1276.5L1271.69 12.4545H1266.3L1261.5 27H1265.76ZM1267.49 21.2614L1268.94 16.4602H1269.05L1270.5 21.2614H1267.49Z" fill="#24262A"/>
<path d="M1275.07 48.7273C1275.07 43.8693 1271.94 41.2557 1268 41.2557C1264.02 41.2557 1260.92 43.8693 1260.92 48.7273C1260.92 53.5568 1264.02 56.1989 1268 56.1989C1271.94 56.1989 1275.07 53.5852 1275.07 48.7273ZM1271.01 48.7273C1271.01 51.3409 1269.96 52.7614 1268 52.7614C1266.04 52.7614 1264.98 51.3409 1264.98 48.7273C1264.98 46.1136 1266.04 44.6932 1268 44.6932C1269.96 44.6932 1271.01 46.1136 1271.01 48.7273Z" fill="#24262A"/>
<path d="M1391.83 41.4545V50.4318C1391.83 51.7884 1390.86 52.7614 1389.5 52.7614C1388.14 52.7614 1387.17 51.7884 1387.17 50.4318V41.4545H1383.22V50.7727C1383.22 54.0966 1385.73 56.1705 1389.5 56.1705C1393.23 56.1705 1395.78 54.0966 1395.78 50.7727V41.4545H1391.83Z" fill="#24262A"/>
<path d="M1382.26 27H1386.21V22.1989H1387.57L1390.13 27H1394.42L1391.46 21.5739C1393.01 20.8281 1393.93 19.4148 1393.93 17.3977C1393.93 14.3011 1391.77 12.4545 1388.54 12.4545H1382.26V27ZM1386.21 19.1307V15.608H1387.6C1388.98 15.608 1389.81 16.1477 1389.81 17.3977C1389.81 18.6406 1388.98 19.1307 1387.6 19.1307H1386.21Z" fill="#24262A"/>
<path d="M1412.26 56H1416.21V51.1989H1417.57L1420.13 56H1424.42L1421.46 50.5739C1423.01 49.8281 1423.93 48.4148 1423.93 46.3977C1423.93 43.3011 1421.77 41.4545 1418.54 41.4545H1412.26V56ZM1416.21 48.1307V44.608H1417.6C1418.98 44.608 1419.81 45.1477 1419.81 46.3977C1419.81 47.6406 1418.98 48.1307 1417.6 48.1307H1416.21Z" fill="#24262A"/>
<path d="M1411.67 15.6364H1416.05V27H1419.94V15.6364H1424.32V12.4545H1411.67V15.6364Z" fill="#24262A"/>
<path d="M1355.76 27L1356.59 24.2159H1361.4L1362.23 27H1366.5L1361.69 12.4545H1356.3L1351.5 27H1355.76ZM1357.49 21.2614L1358.94 16.4602H1359.05L1360.5 21.2614H1357.49Z" fill="#24262A"/>
<path d="M1365.07 48.7273C1365.07 43.8693 1361.94 41.2557 1358 41.2557C1354.02 41.2557 1350.92 43.8693 1350.92 48.7273C1350.92 53.5568 1354.02 56.1989 1358 56.1989C1361.94 56.1989 1365.07 53.5852 1365.07 48.7273ZM1361.01 48.7273C1361.01 51.3409 1359.96 52.7614 1358 52.7614C1356.04 52.7614 1354.98 51.3409 1354.98 48.7273C1354.98 46.1136 1356.04 44.6932 1358 44.6932C1359.96 44.6932 1361.01 46.1136 1361.01 48.7273Z" fill="#24262A"/>
<path d="M401.829 101.455V110.432C401.829 111.788 400.856 112.761 399.499 112.761C398.143 112.761 397.17 111.788 397.17 110.432V101.455H393.221V110.773C393.221 114.097 395.735 116.17 399.499 116.17C403.235 116.17 405.778 114.097 405.778 110.773V101.455H401.829Z" fill="#24262A"/>
<path d="M392.258 87H396.207V82.1989H397.57L400.127 87H404.417L401.462 81.5739C403.011 80.8281 403.934 79.4148 403.934 77.3977C403.934 74.3011 401.768 72.4545 398.536 72.4545H392.258V87ZM396.207 79.1307V75.608H397.599C398.984 75.608 399.815 76.1477 399.815 77.3977C399.815 78.6406 398.984 79.1307 397.599 79.1307H396.207Z" fill="#24262A"/>
<path d="M422.258 116H426.207V111.199H427.57L430.127 116H434.417L431.462 110.574C433.011 109.828 433.934 108.415 433.934 106.398C433.934 103.301 431.768 101.455 428.536 101.455H422.258V116ZM426.207 108.131V104.608H427.599C428.984 104.608 429.815 105.148 429.815 106.398C429.815 107.641 428.984 108.131 427.599 108.131H426.207Z" fill="#24262A"/>
<path d="M421.675 75.6364H426.05V87H429.942V75.6364H434.317V72.4545H421.675V75.6364Z" fill="#24262A"/>
<path d="M365.757 87L366.595 84.2159H371.396L372.234 87H376.496L371.694 72.4545H366.297L361.496 87H365.757ZM367.49 81.2614L368.939 76.4602H369.052L370.501 81.2614H367.49Z" fill="#24262A"/>
<path d="M375.069 108.727C375.069 103.869 371.944 101.256 367.996 101.256C364.018 101.256 360.922 103.869 360.922 108.727C360.922 113.557 364.018 116.199 367.996 116.199C371.944 116.199 375.069 113.585 375.069 108.727ZM371.007 108.727C371.007 111.341 369.956 112.761 367.996 112.761C366.035 112.761 364.984 111.341 364.984 108.727C364.984 106.114 366.035 104.693 367.996 104.693C369.956 104.693 371.007 106.114 371.007 108.727Z" fill="#24262A"/>
<path d="M671.829 101.455V110.432C671.829 111.788 670.856 112.761 669.499 112.761C668.143 112.761 667.17 111.788 667.17 110.432V101.455H663.221V110.773C663.221 114.097 665.735 116.17 669.499 116.17C673.235 116.17 675.778 114.097 675.778 110.773V101.455H671.829Z" fill="#24262A"/>
<path d="M662.258 87H666.207V82.1989H667.57L670.127 87H674.417L671.462 81.5739C673.011 80.8281 673.934 79.4148 673.934 77.3977C673.934 74.3011 671.768 72.4545 668.536 72.4545H662.258V87ZM666.207 79.1307V75.608H667.599C668.984 75.608 669.815 76.1477 669.815 77.3977C669.815 78.6406 668.984 79.1307 667.599 79.1307H666.207Z" fill="#24262A"/>
<path d="M692.258 116H696.207V111.199H697.57L700.127 116H704.417L701.462 110.574C703.011 109.828 703.934 108.415 703.934 106.398C703.934 103.301 701.768 101.455 698.536 101.455H692.258V116ZM696.207 108.131V104.608H697.599C698.984 104.608 699.815 105.148 699.815 106.398C699.815 107.641 698.984 108.131 697.599 108.131H696.207Z" fill="#24262A"/>
<path d="M691.675 75.6364H696.05V87H699.942V75.6364H704.317V72.4545H691.675V75.6364Z" fill="#24262A"/>
<path d="M635.757 87L636.595 84.2159H641.396L642.234 87H646.496L641.694 72.4545H636.297L631.496 87H635.757ZM637.49 81.2614L638.939 76.4602H639.052L640.501 81.2614H637.49Z" fill="#24262A"/>
<path d="M645.069 108.727C645.069 103.869 641.944 101.256 637.996 101.256C634.018 101.256 630.922 103.869 630.922 108.727C630.922 113.557 634.018 116.199 637.996 116.199C641.944 116.199 645.069 113.585 645.069 108.727ZM641.007 108.727C641.007 111.341 639.956 112.761 637.996 112.761C636.035 112.761 634.984 111.341 634.984 108.727C634.984 106.114 636.035 104.693 637.996 104.693C639.956 104.693 641.007 106.114 641.007 108.727Z" fill="#24262A"/>
<path d="M941.829 101.455V110.432C941.829 111.788 940.856 112.761 939.499 112.761C938.143 112.761 937.17 111.788 937.17 110.432V101.455H933.221V110.773C933.221 114.097 935.735 116.17 939.499 116.17C943.235 116.17 945.778 114.097 945.778 110.773V101.455H941.829Z" fill="#24262A"/>
<path d="M932.258 87H936.207V82.1989H937.57L940.127 87H944.417L941.462 81.5739C943.011 80.8281 943.934 79.4148 943.934 77.3977C943.934 74.3011 941.768 72.4545 938.536 72.4545H932.258V87ZM936.207 79.1307V75.608H937.599C938.984 75.608 939.815 76.1477 939.815 77.3977C939.815 78.6406 938.984 79.1307 937.599 79.1307H936.207Z" fill="#24262A"/>
<path d="M962.258 116H966.207V111.199H967.57L970.127 116H974.417L971.462 110.574C973.011 109.828 973.934 108.415 973.934 106.398C973.934 103.301 971.768 101.455 968.536 101.455H962.258V116ZM966.207 108.131V104.608H967.599C968.984 104.608 969.815 105.148 969.815 106.398C969.815 107.641 968.984 108.131 967.599 108.131H966.207Z" fill="#24262A"/>
<path d="M961.675 75.6364H966.05V87H969.942V75.6364H974.317V72.4545H961.675V75.6364Z" fill="#24262A"/>
<path d="M905.757 87L906.595 84.2159H911.396L912.234 87H916.496L911.694 72.4545H906.297L901.496 87H905.757ZM907.49 81.2614L908.939 76.4602H909.052L910.501 81.2614H907.49Z" fill="#24262A"/>
<path d="M915.069 108.727C915.069 103.869 911.944 101.256 907.996 101.256C904.018 101.256 900.922 103.869 900.922 108.727C900.922 113.557 904.018 116.199 907.996 116.199C911.944 116.199 915.069 113.585 915.069 108.727ZM911.007 108.727C911.007 111.341 909.956 112.761 907.996 112.761C906.035 112.761 904.984 111.341 904.984 108.727C904.984 106.114 906.035 104.693 907.996 104.693C909.956 104.693 911.007 106.114 911.007 108.727Z" fill="#24262A"/>
<path d="M1211.83 101.455V110.432C1211.83 111.788 1210.86 112.761 1209.5 112.761C1208.14 112.761 1207.17 111.788 1207.17 110.432V101.455H1203.22V110.773C1203.22 114.097 1205.73 116.17 1209.5 116.17C1213.23 116.17 1215.78 114.097 1215.78 110.773V101.455H1211.83Z" fill="#24262A"/>
<path d="M1202.26 87H1206.21V82.1989H1207.57L1210.13 87H1214.42L1211.46 81.5739C1213.01 80.8281 1213.93 79.4148 1213.93 77.3977C1213.93 74.3011 1211.77 72.4545 1208.54 72.4545H1202.26V87ZM1206.21 79.1307V75.608H1207.6C1208.98 75.608 1209.81 76.1477 1209.81 77.3977C1209.81 78.6406 1208.98 79.1307 1207.6 79.1307H1206.21Z" fill="#24262A"/>
<path d="M1232.26 116H1236.21V111.199H1237.57L1240.13 116H1244.42L1241.46 110.574C1243.01 109.828 1243.93 108.415 1243.93 106.398C1243.93 103.301 1241.77 101.455 1238.54 101.455H1232.26V116ZM1236.21 108.131V104.608H1237.6C1238.98 104.608 1239.81 105.148 1239.81 106.398C1239.81 107.641 1238.98 108.131 1237.6 108.131H1236.21Z" fill="#24262A"/>
<path d="M1231.67 75.6364H1236.05V87H1239.94V75.6364H1244.32V72.4545H1231.67V75.6364Z" fill="#24262A"/>
<path d="M1175.76 87L1176.59 84.2159H1181.4L1182.23 87H1186.5L1181.69 72.4545H1176.3L1171.5 87H1175.76ZM1177.49 81.2614L1178.94 76.4602H1179.05L1180.5 81.2614H1177.49Z" fill="#24262A"/>
<path d="M1185.07 108.727C1185.07 103.869 1181.94 101.256 1178 101.256C1174.02 101.256 1170.92 103.869 1170.92 108.727C1170.92 113.557 1174.02 116.199 1178 116.199C1181.94 116.199 1185.07 113.585 1185.07 108.727ZM1181.01 108.727C1181.01 111.341 1179.96 112.761 1178 112.761C1176.04 112.761 1174.98 111.341 1174.98 108.727C1174.98 106.114 1176.04 104.693 1178 104.693C1179.96 104.693 1181.01 106.114 1181.01 108.727Z" fill="#24262A"/>
<path d="M1301.83 101.455V110.432C1301.83 111.788 1300.86 112.761 1299.5 112.761C1298.14 112.761 1297.17 111.788 1297.17 110.432V101.455H1293.22V110.773C1293.22 114.097 1295.73 116.17 1299.5 116.17C1303.23 116.17 1305.78 114.097 1305.78 110.773V101.455H1301.83Z" fill="#24262A"/>
<path d="M1292.26 87H1296.21V82.1989H1297.57L1300.13 87H1304.42L1301.46 81.5739C1303.01 80.8281 1303.93 79.4148 1303.93 77.3977C1303.93 74.3011 1301.77 72.4545 1298.54 72.4545H1292.26V87ZM1296.21 79.1307V75.608H1297.6C1298.98 75.608 1299.81 76.1477 1299.81 77.3977C1299.81 78.6406 1298.98 79.1307 1297.6 79.1307H1296.21Z" fill="#24262A"/>
<path d="M1322.26 116H1326.21V111.199H1327.57L1330.13 116H1334.42L1331.46 110.574C1333.01 109.828 1333.93 108.415 1333.93 106.398C1333.93 103.301 1331.77 101.455 1328.54 101.455H1322.26V116ZM1326.21 108.131V104.608H1327.6C1328.98 104.608 1329.81 105.148 1329.81 106.398C1329.81 107.641 1328.98 108.131 1327.6 108.131H1326.21Z" fill="#24262A"/>
<path d="M1321.67 75.6364H1326.05V87H1329.94V75.6364H1334.32V72.4545H1321.67V75.6364Z" fill="#24262A"/>
<path d="M1265.76 87L1266.59 84.2159H1271.4L1272.23 87H1276.5L1271.69 72.4545H1266.3L1261.5 87H1265.76ZM1267.49 81.2614L1268.94 76.4602H1269.05L1270.5 81.2614H1267.49Z" fill="#24262A"/>
<path d="M1275.07 108.727C1275.07 103.869 1271.94 101.256 1268 101.256C1264.02 101.256 1260.92 103.869 1260.92 108.727C1260.92 113.557 1264.02 116.199 1268 116.199C1271.94 116.199 1275.07 113.585 1275.07 108.727ZM1271.01 108.727C1271.01 111.341 1269.96 112.761 1268 112.761C1266.04 112.761 1264.98 111.341 1264.98 108.727C1264.98 106.114 1266.04 104.693 1268 104.693C1269.96 104.693 1271.01 106.114 1271.01 108.727Z" fill="#24262A"/>
<path d="M1391.83 101.455V110.432C1391.83 111.788 1390.86 112.761 1389.5 112.761C1388.14 112.761 1387.17 111.788 1387.17 110.432V101.455H1383.22V110.773C1383.22 114.097 1385.73 116.17 1389.5 116.17C1393.23 116.17 1395.78 114.097 1395.78 110.773V101.455H1391.83Z" fill="#24262A"/>
<path d="M1382.26 87H1386.21V82.1989H1387.57L1390.13 87H1394.42L1391.46 81.5739C1393.01 80.8281 1393.93 79.4148 1393.93 77.3977C1393.93 74.3011 1391.77 72.4545 1388.54 72.4545H1382.26V87ZM1386.21 79.1307V75.608H1387.6C1388.98 75.608 1389.81 76.1477 1389.81 77.3977C1389.81 78.6406 1388.98 79.1307 1387.6 79.1307H1386.21Z" fill="#24262A"/>
<path d="M1412.26 116H1416.21V111.199H1417.57L1420.13 116H1424.42L1421.46 110.574C1423.01 109.828 1423.93 108.415 1423.93 106.398C1423.93 103.301 1421.77 101.455 1418.54 101.455H1412.26V116ZM1416.21 108.131V104.608H1417.6C1418.98 104.608 1419.81 105.148 1419.81 106.398C1419.81 107.641 1418.98 108.131 1417.6 108.131H1416.21Z" fill="#24262A"/>
<path d="M1411.67 75.6364H1416.05V87H1419.94V75.6364H1424.32V72.4545H1411.67V75.6364Z" fill="#24262A"/>
<path d="M1355.76 87L1356.59 84.2159H1361.4L1362.23 87H1366.5L1361.69 72.4545H1356.3L1351.5 87H1355.76ZM1357.49 81.2614L1358.94 76.4602H1359.05L1360.5 81.2614H1357.49Z" fill="#24262A"/>
<path d="M1365.07 108.727C1365.07 103.869 1361.94 101.256 1358 101.256C1354.02 101.256 1350.92 103.869 1350.92 108.727C1350.92 113.557 1354.02 116.199 1358 116.199C1361.94 116.199 1365.07 113.585 1365.07 108.727ZM1361.01 108.727C1361.01 111.341 1359.96 112.761 1358 112.761C1356.04 112.761 1354.98 111.341 1354.98 108.727C1354.98 106.114 1356.04 104.693 1358 104.693C1359.96 104.693 1361.01 106.114 1361.01 108.727Z" fill="#24262A"/>
<rect x="306" y="104" width="6" height="5" fill="#24262A"/>
</g>
</svg>
