<svg width="148" height="148" viewBox="0 0 148 148" fill="none" xmlns="http://www.w3.org/2000/svg">
<path d="M144.593 73.6613C144.593 93.91 136.322 112.162 123.061 125.281C110.084 138.257 92.1172 146.1 72.2963 146.1C52.618 146.1 34.6509 138.115 21.532 125.281C8.27058 112.162 0 93.91 0 73.6613C0 33.5918 32.3693 1.22241 72.2963 1.22241C112.223 1.22241 144.593 33.7344 144.593 73.6613Z" fill="#EAEEF9"/>
<path d="M138.319 28.4262C141.548 28.4262 144.165 25.8086 144.165 22.5797C144.165 19.3508 141.548 16.7333 138.319 16.7333C135.09 16.7333 132.472 19.3508 132.472 22.5797C132.472 25.8086 135.09 28.4262 138.319 28.4262Z" fill="#EAEEF9"/>
<path d="M144.007 8.98533C146.212 8.98533 148 7.19774 148 4.99263C148 2.78753 146.212 0.999939 144.007 0.999939C141.802 0.999939 140.015 2.78753 140.015 4.99263C140.015 7.19774 141.802 8.98533 144.007 8.98533Z" fill="#EAEEF9"/>
<path d="M4.53115 26.034C6.73625 26.034 8.52384 24.2464 8.52384 22.0413C8.52384 19.8362 6.73625 18.0486 4.53115 18.0486C2.32604 18.0486 0.538452 19.8362 0.538452 22.0413C0.538452 24.2464 2.32604 26.034 4.53115 26.034Z" fill="#EAEEF9"/>
<path d="M123.061 35.7308V125.281C110.084 138.258 92.1174 146.1 72.2965 146.1C52.6182 146.1 34.6511 138.115 21.5322 125.281V35.7308H123.061Z" fill="white"/>
<path opacity="0.5" d="M74.0901 81.438L54.2267 61.5745L47.4711 68.3301L67.3346 88.1936L74.0901 81.438Z" fill="#3ACC74"/>
<path opacity="0.5" d="M90.3825 51.6998L60.7385 81.3438L67.4941 88.0993L97.1381 58.4554L90.3825 51.6998Z" fill="#3ACC74"/>
<path d="M98.2486 100.327H46.3436V106.886H98.2486V100.327Z" fill="#D5DAE5"/>
<path d="M98.2486 114.729H46.3436V121.288H98.2486V114.729Z" fill="#D5DAE5"/>
<path d="M85.5579 129.274H59.035V135.833H85.5579V129.274Z" fill="#D5DAE5"/>
</svg>
